<svg width="44" height="44" viewBox="0 0 44 44" fill="none" xmlns="http://www.w3.org/2000/svg">
<path d="M22 0.875C10.352 0.875 0.875 10.352 0.875 22C0.875 33.648 10.352 43.125 22 43.125C33.648 43.125 43.125 33.648 43.125 22C43.125 10.352 33.648 0.875 22 0.875ZM22 4.125C31.8914 4.125 39.875 12.1086 39.875 22C39.875 31.8914 31.8914 39.875 22 39.875C12.1086 39.875 4.125 31.8914 4.125 22C4.125 12.1086 12.1086 4.125 22 4.125ZM15.8575 13.5175L13.5175 15.8575L19.6665 22L13.5207 28.1425L15.8608 30.4825L22 24.3351L28.1425 30.4776L30.4825 28.1425L24.3351 22L30.4776 15.8575L28.1425 13.5175L22 19.6665L15.8575 13.5207V13.5175Z" fill="black"/>
</svg>
