<svg width="41" height="41" viewBox="0 0 41 41" fill="none" xmlns="http://www.w3.org/2000/svg">
<path d="M26.6102 13.5055L21.3062 18.6852L20.9397 19.0431L21.3063 19.4008L26.6138 24.5798L25.1704 25.9865L19.8493 20.7902L19.4998 20.4489L19.1504 20.7905L13.8328 25.9904L12.3887 24.5802L17.6952 19.4008L18.0619 19.0429L17.6951 18.6851L12.3858 13.5057L13.8284 12.0969L19.1506 17.2971L19.5001 17.6386L19.8495 17.297L25.1698 12.0959L26.6102 13.5055ZM0.5 19.043C0.5 8.83022 9.0129 0.5 19.5 0.5C29.9871 0.5 38.5 8.83022 38.5 19.043C38.5 29.2557 29.9871 37.5859 19.5 37.5859C9.0129 37.5859 0.5 29.2557 0.5 19.043ZM36.5 19.043C36.5 9.83921 28.8954 2.42969 19.5 2.42969C10.1046 2.42969 2.5 9.83921 2.5 19.043C2.5 28.2467 10.1046 35.6562 19.5 35.6562C28.8954 35.6562 36.5 28.2467 36.5 19.043Z" fill="#B93200" stroke="#B93200"/>
</svg>
