<svg width="176" height="176" viewBox="0 0 176 176" fill="none" xmlns="http://www.w3.org/2000/svg">
<g filter="url(#filter0_d)">
<path d="M152.655 103.247C142.008 138.973 104.414 159.303 68.6877 148.656C32.9615 138.008 12.6314 100.414 23.2791 64.6881C33.9269 28.9619 71.5204 8.63174 107.247 19.2795C142.973 29.9273 163.303 67.5208 152.655 103.247Z" fill="white"/>
<path d="M52.581 46.8474L54.4248 47.3969L49.7018 63.2441L59.4692 66.1551L58.9939 67.7498L47.3827 64.2892L52.581 46.8474ZM70.2509 56.7258C71.9619 57.2357 73.1454 58.0587 73.8016 59.1948C74.4627 60.3143 74.5433 61.7129 74.0433 63.3906L71.6223 71.5135L69.928 71.0086L70.5369 68.9654C69.9353 69.5276 69.1872 69.8834 68.2926 70.0328C67.4146 70.1871 66.444 70.1059 65.3809 69.789C63.9191 69.3533 62.8603 68.658 62.2044 67.7028C61.5486 66.7477 61.3914 65.6971 61.7331 64.5509C62.0648 63.4379 62.7308 62.6598 63.7311 62.2163C64.748 61.7779 66.1369 61.821 67.8977 62.3458L72.0588 63.586L72.2964 62.7886C72.6331 61.6591 72.5724 60.7095 72.1145 59.94C71.6615 59.1539 70.8287 58.5801 69.6161 58.2187C68.7855 57.9711 67.9461 57.8747 67.0978 57.9294C66.2545 57.9674 65.4869 58.1456 64.7952 58.4639L64.3914 56.9057C65.2242 56.539 66.1503 56.3447 67.1696 56.3229C68.1939 56.2846 69.221 56.4189 70.2509 56.7258ZM66.0708 68.4754C67.0675 68.7724 67.9898 68.8031 68.8378 68.5675C69.6907 68.3153 70.4203 67.8092 71.0266 67.0494L71.6652 64.9066L67.5539 63.6812C65.3114 63.0129 63.9575 63.4594 63.4921 65.0209C63.2644 65.785 63.3743 66.478 63.8221 67.0998C64.2747 67.7049 65.0243 68.1635 66.0708 68.4754ZM91.1035 63.0492L81.3668 74.4178L79.5479 73.8756L77.6484 59.0391L79.4922 59.5886L81.0739 72.2143L89.3593 62.5294L91.1035 63.0492ZM102.525 74.1855L91.5621 70.918C91.2558 72.3098 91.4498 73.5704 92.1441 74.6998C92.8434 75.8125 93.9157 76.5842 95.3609 77.015C96.1748 77.2576 96.9644 77.3391 97.7296 77.2597C98.4998 77.1637 99.2182 76.9076 99.8849 76.4913L100.54 77.9345C99.7506 78.4589 98.8613 78.7727 97.872 78.8757C96.8993 78.9837 95.8897 78.8818 94.8432 78.5699C93.4977 78.1689 92.3858 77.53 91.5076 76.6533C90.651 75.765 90.083 74.7275 89.8036 73.541C89.5242 72.3544 89.5751 71.1216 89.9563 69.8425C90.3375 68.5635 90.9532 67.499 91.8034 66.6491C92.6702 65.8041 93.6695 65.2428 94.8012 64.9652C95.9496 64.6925 97.1301 64.7368 98.3428 65.0982C99.5554 65.4596 100.559 66.0663 101.354 66.9182C102.15 67.7702 102.67 68.7845 102.916 69.9611C103.167 71.1212 103.1 72.349 102.714 73.6447L102.525 74.1855ZM97.8898 66.6182C96.6273 66.2419 95.4429 66.332 94.3365 66.8885C93.2517 67.4334 92.4581 68.3363 91.9556 69.5974L101.25 72.3673C101.52 71.037 101.341 69.8444 100.715 68.7896C100.111 67.7232 99.1688 66.9994 97.8898 66.6182ZM119.403 71.3751C121.114 71.885 122.298 72.708 122.954 73.8441C123.615 74.9636 123.696 76.3622 123.196 78.0399L120.775 86.1628L119.08 85.6578L119.689 83.6147C119.088 84.1769 118.34 84.5327 117.445 84.6821C116.567 84.8364 115.596 84.7551 114.533 84.4383C113.072 84.0026 112.013 83.3072 111.357 82.3521C110.701 81.397 110.544 80.3464 110.886 79.2002C111.217 78.0872 111.883 77.309 112.884 76.8656C113.901 76.4271 115.289 76.4703 117.05 76.9951L121.211 78.2352L121.449 77.4379C121.786 76.3083 121.725 75.3588 121.267 74.5893C120.814 73.8031 119.981 73.2294 118.769 72.868C117.938 72.6204 117.099 72.524 116.25 72.5786C115.407 72.6167 114.639 72.7949 113.948 73.1132L113.544 71.555C114.377 71.1882 115.303 70.994 116.322 70.9722C117.346 70.9339 118.373 71.0681 119.403 71.3751ZM115.223 83.1246C116.22 83.4217 117.142 83.4524 117.99 83.2168C118.843 82.9645 119.573 82.4585 120.179 81.6987L120.818 79.5558L116.706 78.3305C114.464 77.6622 113.11 78.1087 112.645 79.6702C112.417 80.4343 112.527 81.1272 112.975 81.749C113.427 82.3542 114.177 82.8127 115.223 83.1246ZM129.056 88.7666C127.993 88.4497 127.016 87.9958 126.125 87.4047C125.256 86.8019 124.616 86.1863 124.207 85.5578L125.42 84.4001C125.839 84.9953 126.422 85.5579 127.169 86.0879C127.92 86.6012 128.744 86.9915 129.641 87.2589C130.837 87.6153 131.772 87.695 132.446 87.4979C133.141 87.2891 133.59 86.8442 133.793 86.1631C133.937 85.6814 133.89 85.2606 133.654 84.9007C133.422 84.5243 133.085 84.1978 132.643 83.9214C132.206 83.6283 131.609 83.2965 130.851 82.926C129.847 82.4098 129.051 81.9555 128.463 81.5631C127.879 81.154 127.429 80.631 127.113 79.9941C126.813 79.3621 126.794 78.6059 127.056 77.7255C127.383 76.6291 128.107 75.8683 129.229 75.4429C130.35 75.0175 131.725 75.0474 133.353 75.5326C134.2 75.7851 135.013 76.1538 135.791 76.6389C136.573 77.1073 137.184 77.606 137.624 78.1348L136.428 79.3248C135.571 78.2555 134.395 77.4981 132.9 77.0525C131.77 76.7159 130.856 76.6602 130.155 76.8856C129.472 77.116 129.033 77.5551 128.84 78.2029C128.692 78.7012 128.731 79.1469 128.957 79.54C129.2 79.938 129.54 80.2836 129.978 80.5766C130.42 80.8531 131.042 81.1923 131.845 81.5943C132.832 82.1056 133.611 82.5549 134.183 82.9424C134.755 83.3298 135.193 83.8313 135.498 84.4467C135.803 85.0621 135.829 85.7934 135.577 86.6405C135.235 87.7867 134.481 88.5568 133.315 88.9507C132.17 89.3329 130.75 89.2716 129.056 88.7666ZM65.8031 88.7912C67.4476 89.2813 68.5939 90.1384 69.2419 91.3625C69.9065 92.5915 69.9641 94.128 69.4146 95.9718L67.1496 103.571L65.3805 103.044L67.5935 95.619C67.9994 94.2569 67.9766 93.1196 67.5251 92.2073C67.0901 91.3 66.2746 90.6681 65.0786 90.3116C63.7165 89.9056 62.5188 90.0099 61.4856 90.6244C60.4573 91.2223 59.7229 92.2604 59.2823 93.7388L57.2327 100.616L55.4636 100.089L57.6766 92.6634C58.0825 91.3013 58.0597 90.164 57.6082 89.2517C57.1732 88.3444 56.3494 87.71 55.1368 87.3486C53.7913 86.9475 52.5936 87.0518 51.5438 87.6613C50.5155 88.2592 49.7811 89.2974 49.3404 90.7758L47.2908 97.6528L45.5217 97.1256L49.4279 84.0193L51.1222 84.5243L50.4093 86.9163C51.1121 86.2576 51.9431 85.836 52.9024 85.6517C53.8617 85.4673 54.8812 85.536 55.9609 85.8578C57.0572 86.1846 57.9348 86.6993 58.5935 87.4021C59.2688 88.1098 59.6697 88.9799 59.7961 90.0123C60.5352 89.2921 61.4251 88.8248 62.4657 88.6104C63.5278 88.3844 64.6403 88.4446 65.8031 88.7912ZM80.4678 93.1618C82.1788 93.6718 83.3624 94.4948 84.0185 95.6308C84.6797 96.7503 84.7602 98.1489 84.2602 99.8266L81.8393 107.95L80.1449 107.445L80.7539 105.401C80.1522 105.964 79.4041 106.319 78.5095 106.469C77.6315 106.623 76.6609 106.542 75.5978 106.225C74.136 105.789 73.0772 105.094 72.4214 104.139C71.7655 103.184 71.6084 102.133 71.95 100.987C72.2817 99.874 72.9477 99.0958 73.948 98.6523C74.965 98.2139 76.3538 98.257 78.1146 98.7818L82.2757 100.022L82.5134 99.2246C82.85 98.0951 82.7894 97.1455 82.3314 96.376C81.8784 95.5899 81.0456 95.0161 79.833 94.6547C79.0024 94.4072 78.163 94.3107 77.3147 94.3654C76.4714 94.4034 75.7039 94.5816 75.0121 94.9L74.6084 93.3417C75.4411 92.975 76.3672 92.7807 77.3865 92.759C78.4108 92.7206 79.4379 92.8549 80.4678 93.1618ZM76.2878 104.911C77.2845 105.208 78.2068 105.239 79.0547 105.004C79.9076 104.751 80.6372 104.245 81.2435 103.485L81.8822 101.343L77.7709 100.117C75.5283 99.4489 74.1744 99.8955 73.709 101.457C73.4813 102.221 73.5913 102.914 74.039 103.536C74.4917 104.141 75.2413 104.599 76.2878 104.911ZM82.8358 91.5886C82.4538 91.4748 82.138 91.2902 81.8885 91.035C81.6439 90.7632 81.3943 90.4174 81.1395 89.9979C80.9148 89.6596 80.7259 89.4134 80.5729 89.2593C80.4414 89.0935 80.276 88.9809 80.0767 88.9215C79.6946 88.8076 79.3452 88.8572 79.0285 89.0703C78.7118 89.2834 78.4709 89.6366 78.3057 90.13L77.2343 89.8107C77.5151 88.99 77.929 88.3899 78.4762 88.0104C79.0234 87.6309 79.6292 87.5401 80.2937 87.7382C80.6758 87.852 80.9832 88.0341 81.2161 88.2844C81.4656 88.5396 81.7319 88.8903 82.0149 89.3363C82.2114 89.6481 82.3837 89.8894 82.5317 90.0601C82.6798 90.2308 82.8535 90.3459 83.0528 90.4053C83.4183 90.5142 83.7569 90.4705 84.0687 90.274C84.3854 90.0609 84.6321 89.7185 84.8089 89.2466L85.8804 89.566C85.6046 90.37 85.1931 90.9618 84.6459 91.3413C84.1036 91.7042 83.5003 91.7867 82.8358 91.5886ZM92.013 111.117C90.7505 110.741 89.6968 110.12 88.8519 109.253C88.0119 108.369 87.4522 107.334 87.1728 106.148C86.8934 104.961 86.9443 103.728 87.3255 102.449C87.7067 101.17 88.339 100.111 89.2224 99.2708C90.1058 98.4308 91.1383 97.8794 92.3199 97.6166C93.5015 97.3538 94.7235 97.4106 95.986 97.7868C97.2485 98.1631 98.3022 98.7846 99.1471 99.6514C99.9921 100.518 100.546 101.542 100.809 102.724C101.088 103.911 101.037 105.143 100.656 106.422C100.275 107.701 99.6425 108.761 98.7591 109.601C97.8923 110.446 96.8657 111.008 95.6791 111.288C94.4975 111.55 93.2755 111.494 92.013 111.117ZM92.4809 109.548C93.4111 109.825 94.3035 109.865 95.1582 109.667C96.0344 109.458 96.7965 109.025 97.4445 108.368C98.0925 107.711 98.565 106.884 98.862 105.888C99.1591 104.891 99.2163 103.94 99.0337 103.036C98.8511 102.131 98.4479 101.36 97.8242 100.722C97.222 100.072 96.4558 99.6089 95.5256 99.3317C94.5953 99.0544 93.6921 99.0204 92.8159 99.2295C91.9612 99.4269 91.2016 99.8516 90.537 100.504C89.8891 101.161 89.4166 101.987 89.1195 102.984C88.8225 103.981 88.7652 104.931 88.9478 105.836C89.147 106.745 89.5477 107.525 90.1499 108.175C90.7736 108.813 91.5506 109.27 92.4809 109.548ZM105.791 115.224C104.728 114.907 103.751 114.453 102.86 113.862C101.99 113.259 101.351 112.643 100.941 112.015L102.155 110.857C102.574 111.452 103.157 112.015 103.903 112.545C104.655 113.058 105.479 113.449 106.376 113.716C107.572 114.072 108.507 114.152 109.18 113.955C109.876 113.746 110.325 113.301 110.528 112.62C110.671 112.138 110.625 111.718 110.389 111.358C110.157 110.981 109.82 110.655 109.378 110.378C108.941 110.085 108.344 109.754 107.586 109.383C106.582 108.867 105.786 108.413 105.198 108.02C104.614 107.611 104.164 107.088 103.848 106.451C103.548 105.819 103.529 105.063 103.791 104.183C104.118 103.086 104.842 102.325 105.964 101.9C107.085 101.475 108.46 101.505 110.088 101.99C110.935 102.242 111.747 102.611 112.525 103.096C113.308 103.564 113.919 104.063 114.358 104.592L113.163 105.782C112.306 104.713 111.13 103.955 109.635 103.51C108.505 103.173 107.59 103.117 106.89 103.343C106.207 103.573 105.768 104.012 105.575 104.66C105.427 105.158 105.466 105.604 105.692 105.997C105.935 106.395 106.275 106.741 106.712 107.034C107.155 107.31 107.777 107.649 108.58 108.051C109.567 108.563 110.346 109.012 110.918 109.399C111.49 109.787 111.928 110.288 112.233 110.904C112.538 111.519 112.564 112.25 112.312 113.098C111.97 114.244 111.216 115.014 110.05 115.408C108.905 115.79 107.485 115.729 105.791 115.224ZM119.43 100.162L121.523 100.786L117.51 112.883L116.14 112.475L119.43 100.162ZM115.241 118.04C114.875 117.931 114.597 117.713 114.405 117.384C114.235 117.044 114.202 116.7 114.306 116.351C114.415 115.985 114.629 115.724 114.947 115.565C115.271 115.39 115.624 115.36 116.006 115.474C116.371 115.583 116.641 115.799 116.816 116.122C116.996 116.429 117.032 116.765 116.923 117.131C116.819 117.479 116.603 117.75 116.274 117.941C115.951 118.116 115.606 118.149 115.241 118.04Z" fill="#B93200"/>
</g>
<defs>
<filter id="filter0_d" x="0" y="0" width="175.935" height="175.935" filterUnits="userSpaceOnUse" color-interpolation-filters="sRGB">
<feFlood flood-opacity="0" result="BackgroundImageFix"/>
<feColorMatrix in="SourceAlpha" type="matrix" values="0 0 0 0 0 0 0 0 0 0 0 0 0 0 0 0 0 0 127 0" result="hardAlpha"/>
<feOffset dy="4"/>
<feGaussianBlur stdDeviation="2"/>
<feComposite in2="hardAlpha" operator="out"/>
<feColorMatrix type="matrix" values="0 0 0 0 0 0 0 0 0 0 0 0 0 0 0 0 0 0 0.25 0"/>
<feBlend mode="normal" in2="BackgroundImageFix" result="effect1_dropShadow"/>
<feBlend mode="normal" in="SourceGraphic" in2="effect1_dropShadow" result="shape"/>
</filter>
</defs>
</svg>
