<svg width="168" height="168" viewBox="0 0 168 168" fill="none" xmlns="http://www.w3.org/2000/svg">
<path d="M148.656 103.247C138.008 138.973 100.414 159.303 64.6882 148.656C28.962 138.008 8.63184 100.414 19.2796 64.6881C29.9274 28.9619 67.5209 8.63174 103.247 19.2795C138.973 29.9273 159.304 67.5208 148.656 103.247Z" fill="#BBBABA"/>
<path d="M48.5824 46.8474L50.4263 47.3969L45.7033 63.2441L55.4707 66.1551L54.9954 67.7498L43.3841 64.2892L48.5824 46.8474ZM66.2524 56.7258C67.9633 57.2357 69.1469 58.0587 69.8031 59.1948C70.4642 60.3143 70.5448 61.7129 70.0447 63.3906L67.6238 71.5135L65.9294 71.0086L66.5384 68.9654C65.9367 69.5276 65.1886 69.8834 64.294 70.0328C63.416 70.1871 62.4455 70.1059 61.3824 69.789C59.9206 69.3533 58.8617 68.658 58.2059 67.7028C57.55 66.7477 57.3929 65.6971 57.7345 64.5509C58.0662 63.4379 58.7322 62.6598 59.7326 62.2163C60.7495 61.7779 62.1384 61.821 63.8991 62.3458L68.0603 63.586L68.2979 62.7886C68.6346 61.6591 68.5739 60.7095 68.116 59.94C67.663 59.1539 66.8301 58.5801 65.6175 58.2187C64.787 57.9711 63.9475 57.8747 63.0993 57.9294C62.2559 57.9674 61.4884 58.1456 60.7966 58.4639L60.3929 56.9057C61.2257 56.539 62.1517 56.3447 63.1711 56.3229C64.1954 56.2846 65.2225 56.4189 66.2524 56.7258ZM62.0723 68.4754C63.069 68.7724 63.9913 68.8031 64.8393 68.5675C65.6922 68.3153 66.4218 67.8092 67.028 67.0494L67.6667 64.9066L63.5554 63.6812C61.3129 63.0129 59.9589 63.4594 59.4936 65.0209C59.2658 65.785 59.3758 66.478 59.8235 67.0998C60.2762 67.7049 61.0258 68.1635 62.0723 68.4754ZM87.105 63.0492L77.3683 74.4178L75.5493 73.8756L73.6498 59.0391L75.4937 59.5886L77.0754 72.2143L85.3608 62.5294L87.105 63.0492ZM98.527 74.1855L87.5635 70.918C87.2572 72.3098 87.4513 73.5704 88.1456 74.6998C88.8449 75.8125 89.9172 76.5842 91.3623 77.015C92.1763 77.2576 92.9659 77.3391 93.7311 77.2597C94.5013 77.1637 95.2197 76.9076 95.8864 76.4913L96.5414 77.9345C95.7521 78.4589 94.8628 78.7727 93.8735 78.8757C92.9008 78.9837 91.8912 78.8818 90.8446 78.5699C89.4991 78.1689 88.3873 77.53 87.5091 76.6533C86.6525 75.765 86.0845 74.7275 85.8051 73.541C85.5257 72.3544 85.5766 71.1216 85.9578 69.8425C86.339 68.5635 86.9547 67.499 87.8049 66.6491C88.6716 65.8041 89.6709 65.2428 90.8027 64.9652C91.9511 64.6925 93.1316 64.7368 94.3442 65.0982C95.5569 65.4596 96.5607 66.0663 97.3559 66.9182C98.151 67.7702 98.6716 68.7845 98.9178 69.9611C99.1689 71.1212 99.1014 72.349 98.7153 73.6447L98.527 74.1855ZM93.8912 66.6182C92.6288 66.2419 91.4444 66.332 90.338 66.8885C89.2532 67.4334 88.4595 68.3363 87.9571 69.5974L97.2511 72.3673C97.521 71.037 97.3429 69.8444 96.7167 68.7896C96.1121 67.7232 95.1703 66.9994 93.8912 66.6182ZM115.405 71.3751C117.116 71.885 118.299 72.708 118.956 73.8441C119.617 74.9636 119.697 76.3622 119.197 78.0399L116.776 86.1628L115.082 85.6578L115.691 83.6147C115.089 84.1769 114.341 84.5327 113.447 84.6821C112.569 84.8364 111.598 84.7551 110.535 84.4383C109.073 84.0026 108.014 83.3072 107.358 82.3521C106.703 81.397 106.545 80.3464 106.887 79.2002C107.219 78.0872 107.885 77.309 108.885 76.8656C109.902 76.4271 111.291 76.4703 113.052 76.9951L117.213 78.2352L117.45 77.4379C117.787 76.3083 117.726 75.3588 117.268 74.5893C116.815 73.8031 115.983 73.2294 114.77 72.868C113.939 72.6204 113.1 72.524 112.252 72.5786C111.408 72.6167 110.641 72.7949 109.949 73.1132L109.545 71.555C110.378 71.1882 111.304 70.994 112.324 70.9722C113.348 70.9339 114.375 71.0681 115.405 71.3751ZM111.225 83.1246C112.221 83.4217 113.144 83.4524 113.992 83.2168C114.845 82.9645 115.574 82.4585 116.181 81.6987L116.819 79.5558L112.708 78.3305C110.465 77.6622 109.111 78.1087 108.646 79.6702C108.418 80.4343 108.528 81.1272 108.976 81.749C109.429 82.3542 110.178 82.8127 111.225 83.1246ZM125.058 88.7666C123.994 88.4497 123.017 87.9958 122.126 87.4047C121.257 86.8019 120.618 86.1863 120.208 85.5578L121.421 84.4001C121.841 84.9953 122.424 85.5579 123.17 86.0879C123.921 86.6012 124.745 86.9915 125.643 87.2589C126.839 87.6153 127.773 87.695 128.447 87.4979C129.142 87.2891 129.591 86.8442 129.794 86.1631C129.938 85.6814 129.892 85.2606 129.655 84.9007C129.424 84.5243 129.087 84.1978 128.645 83.9214C128.208 83.6283 127.61 83.2965 126.852 82.926C125.849 82.4098 125.053 81.9555 124.464 81.5631C123.881 81.154 123.431 80.631 123.114 79.9941C122.814 79.3621 122.795 78.6059 123.058 77.7255C123.385 76.6291 124.109 75.8683 125.23 75.4429C126.352 75.0175 127.727 75.0474 129.354 75.5326C130.202 75.7851 131.014 76.1538 131.792 76.6389C132.575 77.1073 133.186 77.606 133.625 78.1348L132.429 79.3248C131.572 78.2555 130.396 77.4981 128.901 77.0525C127.772 76.7159 126.857 76.6602 126.157 76.8856C125.473 77.116 125.035 77.5551 124.842 78.2029C124.693 78.7012 124.732 79.1469 124.959 79.54C125.202 79.938 125.542 80.2836 125.979 80.5766C126.421 80.8531 127.044 81.1923 127.846 81.5943C128.833 82.1056 129.613 82.5549 130.185 82.9424C130.756 83.3298 131.195 83.8313 131.5 84.4467C131.805 85.0621 131.831 85.7934 131.578 86.6405C131.237 87.7867 130.483 88.5568 129.316 88.9507C128.171 89.3329 126.752 89.2716 125.058 88.7666ZM61.8045 88.7912C63.4491 89.2813 64.5953 90.1384 65.2434 91.3625C65.908 92.5915 65.9656 94.128 65.416 95.9718L63.1511 103.571L61.3819 103.044L63.5949 95.619C64.0009 94.2569 63.9781 93.1196 63.5265 92.2073C63.0916 91.3 62.2761 90.6681 61.0801 90.3116C59.718 89.9056 58.5203 90.0099 57.4871 90.6244C56.4588 91.2223 55.7244 92.2604 55.2837 93.7388L53.2341 100.616L51.465 100.089L53.678 92.6634C54.084 91.3013 54.0612 90.164 53.6096 89.2517C53.1747 88.3444 52.3509 87.71 51.1382 87.3486C49.7927 86.9475 48.5951 87.0518 47.5452 87.6613C46.517 88.2592 45.7825 89.2974 45.3419 90.7758L43.2923 97.6528L41.5232 97.1256L45.4293 84.0193L47.1237 84.5243L46.4108 86.9163C47.1135 86.2576 47.9446 85.836 48.9038 85.6517C49.8631 85.4673 50.8826 85.536 51.9624 85.8578C53.0587 86.1846 53.9362 86.6993 54.595 87.4021C55.2703 88.1098 55.6711 88.9799 55.7975 90.0123C56.5367 89.2921 57.4266 88.8248 58.4671 88.6104C59.5293 88.3844 60.6417 88.4446 61.8045 88.7912ZM76.4693 93.1618C78.1803 93.6718 79.3638 94.4948 80.02 95.6308C80.6811 96.7503 80.7617 98.1489 80.2617 99.8266L77.8407 107.95L76.1464 107.445L76.7553 105.401C76.1537 105.964 75.4055 106.319 74.511 106.469C73.633 106.623 72.6624 106.542 71.5993 106.225C70.1375 105.789 69.0787 105.094 68.4228 104.139C67.767 103.184 67.6098 102.133 67.9514 100.987C68.2832 99.874 68.9492 99.0958 69.9495 98.6523C70.9664 98.2139 72.3553 98.257 74.1161 98.7818L78.2772 100.022L78.5148 99.2246C78.8515 98.0951 78.7908 97.1455 78.3329 96.376C77.8799 95.5899 77.0471 95.0161 75.8345 94.6547C75.0039 94.4072 74.1645 94.3107 73.3162 94.3654C72.4729 94.4034 71.7053 94.5816 71.0136 94.9L70.6098 93.3417C71.4426 92.975 72.3687 92.7807 73.388 92.759C74.4123 92.7206 75.4394 92.8549 76.4693 93.1618ZM72.2892 104.911C73.2859 105.208 74.2082 105.239 75.0562 105.004C75.9091 104.751 76.6387 104.245 77.245 103.485L77.8836 101.343L73.7723 100.117C71.5298 99.4489 70.1759 99.8955 69.7105 101.457C69.4827 102.221 69.5927 102.914 70.0405 103.536C70.4931 104.141 71.2427 104.599 72.2892 104.911ZM78.8373 91.5886C78.4552 91.4748 78.1394 91.2902 77.8899 91.035C77.6454 90.7632 77.3957 90.4174 77.141 89.9979C76.9162 89.6596 76.7274 89.4134 76.5743 89.2593C76.4429 89.0935 76.2775 88.9809 76.0781 88.9215C75.6961 88.8076 75.3467 88.8572 75.03 89.0703C74.7133 89.2834 74.4723 89.6366 74.3072 90.13L73.2358 89.8107C73.5165 88.99 73.9305 88.3899 74.4777 88.0104C75.0249 87.6309 75.6307 87.5401 76.2952 87.7382C76.6772 87.852 76.9847 88.0341 77.2176 88.2844C77.4671 88.5396 77.7333 88.8903 78.0164 89.3363C78.2129 89.6481 78.3851 89.8894 78.5332 90.0601C78.6813 90.2308 78.855 90.3459 79.0543 90.4053C79.4197 90.5142 79.7584 90.4705 80.0701 90.274C80.3868 90.0609 80.6336 89.7185 80.8104 89.2466L81.8818 89.566C81.606 90.37 81.1945 90.9618 80.6473 91.3413C80.1051 91.7042 79.5017 91.7867 78.8373 91.5886ZM88.0145 111.117C86.752 110.741 85.6983 110.12 84.8533 109.253C84.0133 108.369 83.4536 107.334 83.1742 106.148C82.8948 104.961 82.9457 103.728 83.327 102.449C83.7082 101.17 84.3405 100.111 85.2239 99.2708C86.1072 98.4308 87.1397 97.8794 88.3214 97.6166C89.503 97.3538 90.725 97.4106 91.9875 97.7868C93.2499 98.1631 94.3036 98.7846 95.1486 99.6514C95.9936 100.518 96.5474 101.542 96.8102 102.724C97.0896 103.911 97.0387 105.143 96.6575 106.422C96.2763 107.701 95.644 108.761 94.7606 109.601C93.8938 110.446 92.8671 111.008 91.6806 111.288C90.499 111.55 89.2769 111.494 88.0145 111.117ZM88.4823 109.548C89.4125 109.825 90.305 109.865 91.1597 109.667C92.0359 109.458 92.798 109.025 93.446 108.368C94.0939 107.711 94.5664 106.884 94.8635 105.888C95.1605 104.891 95.2177 103.94 95.0352 103.036C94.8526 102.131 94.4494 101.36 93.8257 100.722C93.2235 100.072 92.4573 99.6089 91.527 99.3317C90.5968 99.0544 89.6936 99.0204 88.8174 99.2295C87.9627 99.4269 87.2031 99.8516 86.5385 100.504C85.8905 101.161 85.418 101.987 85.121 102.984C84.8239 103.981 84.7667 104.931 84.9493 105.836C85.1485 106.745 85.5492 107.525 86.1514 108.175C86.7751 108.813 87.5521 109.27 88.4823 109.548ZM101.792 115.224C100.729 114.907 99.7522 114.453 98.8612 113.862C97.9918 113.259 97.3524 112.643 96.9428 112.015L98.156 110.857C98.5755 111.452 99.1584 112.015 99.9048 112.545C100.656 113.058 101.48 113.449 102.377 113.716C103.573 114.072 104.508 114.152 105.182 113.955C105.877 113.746 106.326 113.301 106.529 112.62C106.673 112.138 106.626 111.718 106.39 111.358C106.159 110.981 105.822 110.655 105.38 110.378C104.943 110.085 104.345 109.754 103.587 109.383C102.584 108.867 101.788 108.413 101.199 108.02C100.616 107.611 100.166 107.088 99.849 106.451C99.549 105.819 99.5302 105.063 99.7926 104.183C100.119 103.086 100.844 102.325 101.965 101.9C103.087 101.475 104.461 101.505 106.089 101.99C106.936 102.242 107.749 102.611 108.527 103.096C109.31 103.564 109.921 104.063 110.36 104.592L109.164 105.782C108.307 104.713 107.131 103.955 105.636 103.51C104.507 103.173 103.592 103.117 102.892 103.343C102.208 103.573 101.77 104.012 101.577 104.66C101.428 105.158 101.467 105.604 101.694 105.997C101.937 106.395 102.277 106.741 102.714 107.034C103.156 107.31 103.778 107.649 104.581 108.051C105.568 108.563 106.348 109.012 106.919 109.399C107.491 109.787 107.93 110.288 108.235 110.904C108.54 111.519 108.566 112.25 108.313 113.098C107.972 114.244 107.218 115.014 106.051 115.408C104.906 115.79 103.487 115.729 101.792 115.224ZM115.431 100.162L117.524 100.786L113.512 112.883L112.141 112.475L115.431 100.162ZM111.242 118.04C110.877 117.931 110.598 117.713 110.407 117.384C110.237 117.044 110.204 116.7 110.308 116.351C110.417 115.985 110.63 115.724 110.949 115.565C111.272 115.39 111.625 115.36 112.007 115.474C112.373 115.583 112.643 115.799 112.818 116.122C112.998 116.429 113.033 116.765 112.924 117.131C112.82 117.479 112.604 117.75 112.276 117.941C111.952 118.116 111.608 118.149 111.242 118.04Z" fill="black"/>
</svg>
