<svg width="290" height="286" viewBox="0 0 290 286" fill="none" xmlns="http://www.w3.org/2000/svg">
<g filter="url(#filter0_d)">
<path d="M243.314 104.44C263.574 160.246 235.835 221.52 181.357 241.298C126.879 261.076 66.2908 231.869 46.0304 176.063C25.77 120.256 53.5091 58.9823 107.987 39.2041C162.466 19.426 223.053 48.6329 243.314 104.44Z" fill="white"/>
<path d="M100.141 110.834L107.785 131.889L105.95 132.555L86.2119 120.384L92.4145 137.469L90.1886 138.277L82.5446 117.222L84.3794 116.556L104.148 128.716L97.9451 111.631L100.141 110.834ZM113.953 111.607C116.018 110.857 117.792 110.803 119.273 111.445C120.748 112.068 121.852 113.392 122.588 115.417L126.147 125.223L124.102 125.965L123.207 123.499C123.024 124.496 122.545 125.396 121.77 126.199C121.015 126.995 119.996 127.626 118.712 128.092C116.948 128.733 115.391 128.821 114.043 128.358C112.694 127.894 111.769 126.97 111.266 125.587C110.779 124.243 110.867 122.986 111.531 121.814C112.215 120.635 113.62 119.66 115.745 118.888L120.769 117.064L120.419 116.102C119.924 114.738 119.168 113.844 118.151 113.419C117.127 112.973 115.883 113.017 114.419 113.548C113.417 113.912 112.516 114.432 111.718 115.108C110.912 115.763 110.283 116.502 109.833 117.324L108.291 116.079C108.846 115.106 109.619 114.235 110.611 113.467C111.596 112.678 112.71 112.058 113.953 111.607ZM118.432 126.288C119.635 125.851 120.569 125.205 121.235 124.351C121.893 123.476 122.244 122.441 122.287 121.245L121.347 118.659L116.384 120.46C113.677 121.443 112.666 122.877 113.35 124.762C113.685 125.685 114.302 126.289 115.2 126.576C116.091 126.842 117.168 126.746 118.432 126.288ZM115.141 108.316C114.68 108.483 114.233 108.532 113.799 108.463C113.358 108.373 112.858 108.214 112.298 107.986C111.828 107.816 111.461 107.711 111.196 107.671C110.945 107.604 110.699 107.613 110.458 107.701C109.997 107.868 109.688 108.173 109.531 108.616C109.374 109.059 109.395 109.585 109.593 110.194L108.3 110.663C107.976 109.646 107.945 108.749 108.208 107.973C108.471 107.197 109.003 106.663 109.806 106.372C110.267 106.204 110.704 106.159 111.118 106.236C111.552 106.305 112.072 106.457 112.679 106.69C113.102 106.855 113.449 106.967 113.72 107.027C113.992 107.087 114.248 107.074 114.489 106.987C114.93 106.826 115.232 106.535 115.397 106.112C115.554 105.669 115.547 105.15 115.376 104.554L116.669 104.084C116.986 105.081 117.012 105.968 116.75 106.744C116.479 107.501 115.943 108.024 115.141 108.316ZM138.528 120.898C137.004 121.451 135.507 121.609 134.036 121.371C132.558 121.114 131.246 120.501 130.1 119.532C128.954 118.564 128.101 117.307 127.541 115.763C126.98 114.219 126.829 112.708 127.086 111.23C127.344 109.752 127.961 108.45 128.937 107.324C129.912 106.199 131.162 105.359 132.686 104.806C134.21 104.252 135.708 104.095 137.178 104.332C138.649 104.57 139.947 105.177 141.073 106.152C142.219 107.121 143.072 108.377 143.633 109.921C144.194 111.465 144.345 112.976 144.087 114.454C143.849 115.925 143.246 117.233 142.278 118.379C141.302 119.505 140.052 120.345 138.528 120.898ZM137.84 119.003C138.963 118.595 139.875 117.981 140.575 117.159C141.288 116.31 141.725 115.323 141.884 114.199C142.043 113.074 141.904 111.911 141.467 110.707C141.03 109.504 140.39 108.522 139.547 107.762C138.703 107.001 137.739 106.534 136.655 106.361C135.583 106.16 134.486 106.263 133.363 106.671C132.24 107.078 131.322 107.707 130.609 108.556C129.909 109.377 129.469 110.354 129.29 111.486C129.131 112.61 129.27 113.774 129.706 114.977C130.143 116.18 130.783 117.162 131.627 117.923C132.49 118.676 133.458 119.153 134.529 119.354C135.614 119.528 136.717 119.411 137.84 119.003ZM163.033 112.002C161.75 112.468 160.451 112.735 159.137 112.803C157.835 112.845 156.752 112.705 155.886 112.383L156.237 110.35C157.088 110.631 158.077 110.76 159.203 110.737C160.323 110.693 161.423 110.475 162.506 110.082C163.95 109.558 164.933 108.952 165.454 108.263C165.989 107.547 166.107 106.778 165.808 105.956C165.597 105.374 165.243 104.992 164.745 104.81C164.241 104.607 163.668 104.531 163.029 104.582C162.382 104.612 161.548 104.722 160.527 104.911C159.156 105.137 158.036 105.271 157.167 105.314C156.29 105.337 155.462 105.15 154.682 104.752C153.922 104.347 153.349 103.613 152.963 102.551C152.483 101.227 152.641 99.9441 153.438 98.7015C154.235 97.4589 155.617 96.4809 157.582 95.7674C158.604 95.3961 159.678 95.1652 160.803 95.0747C161.92 94.9641 162.89 95.0092 163.712 95.2102L163.402 97.2632C161.771 96.834 160.053 96.947 158.248 97.6022C156.884 98.0973 155.939 98.7128 155.412 99.4489C154.905 100.178 154.793 100.933 155.077 101.715C155.296 102.317 155.661 102.729 156.173 102.951C156.705 103.167 157.294 103.259 157.941 103.229C158.581 103.178 159.445 103.057 160.533 102.866C161.884 102.648 162.984 102.521 163.834 102.485C164.683 102.449 165.484 102.624 166.236 103.009C166.989 103.394 167.551 104.097 167.922 105.12C168.424 106.504 168.243 107.818 167.379 109.062C166.527 110.279 165.078 111.259 163.033 112.002ZM184.598 95.7978L171.363 100.603C172.081 102.203 173.196 103.307 174.711 103.915C176.218 104.503 177.844 104.48 179.588 103.847C180.571 103.49 181.411 102.992 182.11 102.353C182.801 101.693 183.323 100.913 183.677 100.013L185.383 100.96C184.987 102.057 184.337 103.019 183.435 103.846C182.552 104.666 181.479 105.305 180.216 105.764C178.592 106.353 177.024 106.536 175.513 106.313C174.015 106.063 172.693 105.453 171.547 104.485C170.401 103.517 169.548 102.26 168.987 100.716C168.427 99.1722 168.255 97.6684 168.473 96.205C168.711 94.7342 169.287 93.4469 170.203 92.3428C171.139 91.2315 172.338 90.4101 173.802 89.8787C175.266 89.3472 176.703 89.2113 178.114 89.4708C179.524 89.7304 180.783 90.3516 181.888 91.3346C182.987 92.2975 183.82 93.5611 184.388 95.1252L184.598 95.7978ZM174.468 91.7135C172.944 92.2668 171.839 93.224 171.153 94.5851C170.48 95.919 170.357 97.3934 170.785 99.0085L182.004 94.9353C181.296 93.4221 180.246 92.3736 178.853 91.7896C177.474 91.1783 176.012 91.1529 174.468 91.7135ZM76.5678 169.061L63.333 173.866C64.0503 175.467 65.1661 176.571 66.6804 177.179C68.1874 177.766 69.8132 177.744 71.5577 177.11C72.5403 176.754 73.3808 176.256 74.0792 175.616C74.7703 174.957 75.2929 174.177 75.647 173.277L77.3525 174.224C76.9564 175.321 76.307 176.283 75.4044 177.11C74.5218 177.929 73.4489 178.568 72.1856 179.027C70.5613 179.617 68.9937 179.8 67.4829 179.577C65.9848 179.326 64.6628 178.717 63.5169 177.749C62.371 176.78 61.5177 175.524 60.9571 173.98C60.3966 172.436 60.2251 170.932 60.4428 169.469C60.6805 167.998 61.2571 166.71 62.1726 165.606C63.1082 164.495 64.308 163.674 65.7718 163.142C67.2356 162.611 68.6729 162.475 70.0834 162.734C71.494 162.994 72.7522 163.615 73.8581 164.598C74.9566 165.561 75.7898 166.825 76.3576 168.389L76.5678 169.061ZM66.4379 164.977C64.9139 165.53 63.8089 166.488 63.1229 167.849C62.4496 169.183 62.3268 170.657 62.7542 172.272L73.9737 168.199C73.2655 166.686 72.2153 165.637 70.8231 165.053C69.4437 164.442 67.982 164.417 66.4379 164.977ZM87.8723 173.332C86.5889 173.798 85.2901 174.065 83.976 174.134C82.6746 174.175 81.5911 174.035 80.7255 173.714L81.0765 171.68C81.9276 171.961 82.9163 172.09 84.0427 172.067C85.1618 172.024 86.2628 171.806 87.3456 171.413C88.7894 170.888 89.7721 170.282 90.2938 169.593C90.8282 168.877 90.9461 168.108 90.6476 167.286C90.4365 166.705 90.0822 166.323 89.5847 166.14C89.08 165.937 88.5077 165.861 87.8679 165.912C87.2209 165.943 86.387 166.053 85.3662 166.242C83.9955 166.467 82.8754 166.601 82.006 166.645C81.1293 166.668 80.301 166.481 79.5211 166.083C78.7613 165.678 78.1885 164.944 77.8026 163.881C77.3221 162.558 77.4805 161.275 78.2776 160.032C79.0747 158.789 80.4559 157.811 82.421 157.098C83.4437 156.727 84.5174 156.496 85.642 156.405C86.7593 156.294 87.7289 156.34 88.5508 156.541L88.2408 158.594C86.6098 158.164 84.8919 158.277 83.0872 158.933C81.7236 159.428 80.7782 160.043 80.2511 160.779C79.744 161.508 79.6325 162.264 79.9164 163.046C80.1348 163.647 80.5 164.059 81.0121 164.282C81.5441 164.497 82.1337 164.59 82.7808 164.559C83.4205 164.508 84.2845 164.387 85.3727 164.197C86.7234 163.979 87.8234 163.852 88.6728 163.816C89.5222 163.78 90.3231 163.954 91.0757 164.339C91.8282 164.724 92.3901 165.428 92.7614 166.451C93.2637 167.834 93.0826 169.148 92.218 170.393C91.3662 171.61 89.9176 172.59 87.8723 173.332ZM106.987 148.315L114.849 169.972L112.714 170.748L109.514 161.935C109.224 163.197 108.655 164.289 107.809 165.209C106.976 166.102 105.917 166.781 104.634 167.247C103.13 167.793 101.656 167.953 100.213 167.728C98.7824 167.476 97.5041 166.862 96.3783 165.886C95.2524 164.911 94.4019 163.631 93.8268 162.047C93.2589 160.483 93.0939 158.965 93.3316 157.494C93.5693 156.024 94.1696 154.739 95.1325 153.64C96.0881 152.522 97.3079 151.693 98.7918 151.154C100.115 150.674 101.4 150.525 102.647 150.708C103.914 150.884 105.057 151.376 106.077 152.186L104.942 149.058L106.987 148.315ZM104.127 165.286C105.229 164.886 106.131 164.275 106.831 163.453C107.545 162.604 107.981 161.618 108.14 160.493C108.319 159.361 108.19 158.194 107.753 156.991C107.317 155.787 106.67 154.819 105.814 154.086C104.97 153.326 104.003 152.849 102.911 152.655C101.839 152.454 100.752 152.553 99.6493 152.954C98.5264 153.362 97.6084 153.99 96.8953 154.839C96.2022 155.681 95.7661 156.667 95.5869 157.799C95.4205 158.903 95.5557 160.057 95.9925 161.26C96.4293 162.464 97.0694 163.445 97.9129 164.206C98.7764 164.959 99.744 165.436 100.816 165.637C101.9 165.811 103.004 165.694 104.127 165.286ZM127.192 140.98L132.936 156.802L130.891 157.544L129.842 154.657C129.63 155.823 129.131 156.855 128.345 157.753C127.552 158.631 126.524 159.3 125.26 159.759C123.195 160.508 121.353 160.53 119.735 159.824C118.13 159.09 116.923 157.611 116.115 155.385L112.784 146.211L114.92 145.435L118.174 154.399C118.778 156.063 119.648 157.177 120.783 157.741C121.918 158.305 123.248 158.31 124.772 157.757C126.436 157.153 127.568 156.175 128.166 154.823C128.758 153.45 128.726 151.862 128.07 150.057L125.056 141.755L127.192 140.98ZM150.062 142.38L136.827 147.185C137.544 148.785 138.66 149.889 140.174 150.497C141.681 151.085 143.307 151.062 145.052 150.429C146.034 150.072 146.875 149.574 147.573 148.934C148.264 148.275 148.787 147.495 149.141 146.595L150.847 147.542C150.45 148.639 149.801 149.601 148.898 150.428C148.016 151.248 146.943 151.887 145.68 152.345C144.055 152.935 142.488 153.118 140.977 152.895C139.479 152.645 138.157 152.035 137.011 151.067C135.865 150.098 135.012 148.842 134.451 147.298C133.891 145.754 133.719 144.25 133.937 142.787C134.175 141.316 134.751 140.029 135.667 138.925C136.602 137.813 137.802 136.992 139.266 136.461C140.73 135.929 142.167 135.793 143.577 136.053C144.988 136.312 146.246 136.934 147.352 137.916C148.451 138.879 149.284 140.143 149.852 141.707L150.062 142.38ZM139.932 138.295C138.408 138.849 137.303 139.806 136.617 141.167C135.944 142.501 135.821 143.975 136.248 145.59L147.468 141.517C146.76 140.004 145.709 138.955 144.317 138.371C142.938 137.76 141.476 137.735 139.932 138.295ZM163.682 145.81C162.118 146.377 160.591 146.546 159.1 146.316C157.629 146.078 156.321 145.475 155.175 144.506C154.022 143.518 153.165 142.252 152.604 140.708C152.044 139.164 151.892 137.653 152.15 136.175C152.408 134.697 153.025 133.395 154 132.269C154.996 131.136 156.276 130.285 157.84 129.717C159.204 129.222 160.515 129.052 161.775 129.208C163.047 129.336 164.179 129.799 165.172 130.596L163.971 132.258C163.166 131.665 162.293 131.323 161.352 131.234C160.405 131.124 159.46 131.24 158.517 131.582C157.374 131.997 156.436 132.633 155.703 133.489C154.983 134.318 154.533 135.298 154.354 136.43C154.194 137.554 154.333 138.718 154.77 139.921C155.214 141.145 155.858 142.136 156.701 142.897C157.558 143.63 158.532 144.094 159.623 144.287C160.728 144.454 161.851 144.33 162.994 143.915C163.937 143.572 164.74 143.065 165.404 142.393C166.068 141.721 166.518 140.899 166.756 139.928L168.743 140.432C168.493 141.68 167.924 142.772 167.038 143.706C166.144 144.621 165.026 145.322 163.682 145.81ZM164.767 152.735C163.784 153.092 162.858 153.167 161.989 152.961L162.085 151.632C162.805 151.802 163.536 151.752 164.278 151.483C164.88 151.264 165.297 150.977 165.531 150.619C165.764 150.262 165.797 149.853 165.63 149.392C165.477 148.971 165.193 148.688 164.777 148.544C164.389 148.413 163.884 148.46 163.263 148.685L162.571 148.937L162.299 145.937L163.592 145.468L163.775 147.376C164.626 147.158 165.348 147.179 165.943 147.44C166.544 147.721 166.968 148.203 167.216 148.884C167.507 149.686 167.425 150.431 166.971 151.118C166.524 151.825 165.79 152.364 164.767 152.735ZM173.766 123.935C175.832 123.185 177.605 123.132 179.087 123.774C180.561 124.396 181.666 125.72 182.401 127.745L185.961 137.551L183.915 138.294L183.02 135.827C182.837 136.824 182.358 137.724 181.583 138.528C180.828 139.324 179.809 139.955 178.526 140.421C176.761 141.061 175.204 141.15 173.856 140.686C172.507 140.223 171.582 139.299 171.08 137.915C170.592 136.572 170.68 135.314 171.344 134.143C172.028 132.964 173.433 131.988 175.559 131.217L180.582 129.393L180.232 128.431C179.737 127.067 178.981 126.173 177.965 125.747C176.941 125.302 175.697 125.345 174.233 125.877C173.23 126.241 172.33 126.761 171.531 127.436C170.725 128.092 170.097 128.831 169.646 129.653L168.105 128.408C168.659 127.435 169.433 126.564 170.424 125.795C171.409 125.007 172.523 124.387 173.766 123.935ZM178.245 138.616C179.448 138.179 180.383 137.534 181.048 136.679C181.707 135.805 182.057 134.77 182.1 133.574L181.161 130.987L176.198 132.789C173.491 133.772 172.479 135.206 173.163 137.091C173.498 138.013 174.115 138.618 175.013 138.904C175.904 139.171 176.982 139.075 178.245 138.616ZM205.969 105.027L214.072 127.346L212.026 128.088L210.891 124.96C210.635 126.256 210.077 127.377 209.218 128.325C208.379 129.265 207.298 129.975 205.975 130.455C204.491 130.994 203.024 131.141 201.573 130.896C200.122 130.651 198.834 130.041 197.708 129.065C196.582 128.089 195.735 126.819 195.167 125.255C194.6 123.691 194.435 122.174 194.672 120.703C194.91 119.232 195.51 117.948 196.473 116.849C197.429 115.731 198.649 114.902 200.132 114.363C201.416 113.897 202.667 113.749 203.886 113.919C205.118 114.062 206.251 114.525 207.284 115.307L203.833 105.802L205.969 105.027ZM205.467 128.495C206.57 128.095 207.472 127.484 208.172 126.662C208.885 125.813 209.321 124.826 209.48 123.702C209.66 122.57 209.531 121.402 209.094 120.199C208.657 118.996 208.007 118.018 207.144 117.265C206.3 116.504 205.336 116.037 204.252 115.863C203.18 115.662 202.093 115.762 200.99 116.163C199.867 116.57 198.949 117.199 198.236 118.047C197.536 118.869 197.096 119.846 196.917 120.978C196.758 122.102 196.896 123.266 197.333 124.469C197.77 125.672 198.41 126.654 199.254 127.415C200.117 128.168 201.085 128.645 202.156 128.846C203.241 129.02 204.344 128.903 205.467 128.495ZM219.766 107.235C221.832 106.485 223.605 106.432 225.086 107.074C226.561 107.696 227.665 109.02 228.401 111.045L231.961 120.851L229.915 121.594L229.02 119.127C228.837 120.124 228.358 121.024 227.583 121.828C226.828 122.624 225.809 123.255 224.526 123.721C222.761 124.361 221.204 124.45 219.856 123.986C218.507 123.522 217.582 122.599 217.08 121.215C216.592 119.872 216.68 118.614 217.344 117.442C218.028 116.264 219.433 115.288 221.559 114.517L226.582 112.693L226.232 111.73C225.737 110.367 224.981 109.472 223.965 109.047C222.94 108.602 221.696 108.645 220.233 109.177C219.23 109.541 218.329 110.06 217.531 110.736C216.725 111.392 216.096 112.131 215.646 112.952L214.105 111.708C214.659 110.735 215.432 109.864 216.424 109.095C217.409 108.307 218.523 107.687 219.766 107.235ZM224.245 121.916C225.448 121.479 226.382 120.834 227.048 119.979C227.707 119.105 228.057 118.07 228.1 116.874L227.161 114.287L222.197 116.089C219.49 117.072 218.479 118.506 219.163 120.391C219.498 121.313 220.115 121.918 221.013 122.204C221.904 122.471 222.982 122.375 224.245 121.916ZM108.25 181.764C110.235 181.044 111.997 181.051 113.535 181.786C115.093 182.514 116.276 183.991 117.084 186.217L120.414 195.391L118.279 196.167L115.025 187.203C114.428 185.559 113.572 184.451 112.456 183.88C111.361 183.302 110.092 183.274 108.648 183.799C107.004 184.396 105.896 185.376 105.325 186.741C104.746 188.086 104.781 189.651 105.429 191.436L108.443 199.737L106.307 200.513L103.053 191.549C102.456 189.905 101.6 188.797 100.485 188.226C99.3898 187.648 98.1103 187.624 96.6465 188.156C95.0222 188.745 93.9144 189.726 93.3232 191.098C92.7447 192.443 92.7794 194.008 93.4274 195.793L96.4413 204.095L94.3057 204.87L88.5617 189.048L90.6071 188.306L91.6554 191.193C91.8675 190.027 92.3801 189.001 93.1935 188.116C94.0069 187.23 95.0652 186.551 96.3687 186.078C97.6922 185.597 98.9371 185.463 100.103 185.675C101.29 185.88 102.324 186.446 103.206 187.374C103.409 186.121 103.946 185.006 104.818 184.032C105.702 183.03 106.846 182.274 108.25 181.764ZM125.953 175.337C128.018 174.588 129.792 174.534 131.273 175.176C132.747 175.798 133.852 177.122 134.587 179.148L138.147 188.953L136.102 189.696L135.207 187.229C135.024 188.226 134.545 189.126 133.77 189.93C133.015 190.726 131.996 191.357 130.712 191.823C128.948 192.463 127.391 192.552 126.043 192.088C124.694 191.625 123.769 190.701 123.266 189.317C122.779 187.974 122.867 186.716 123.531 185.545C124.215 184.366 125.62 183.39 127.745 182.619L132.768 180.795L132.419 179.833C131.924 178.469 131.168 177.575 130.151 177.149C129.127 176.704 127.883 176.747 126.419 177.279C125.417 177.643 124.516 178.163 123.717 178.838C122.911 179.494 122.283 180.233 121.833 181.055L120.291 179.81C120.846 178.837 121.619 177.966 122.611 177.197C123.596 176.409 124.71 175.789 125.953 175.337ZM130.432 190.018C131.635 189.581 132.569 188.936 133.235 188.081C133.893 187.207 134.244 186.172 134.286 184.976L133.347 182.389L128.384 184.191C125.677 185.174 124.666 186.608 125.35 188.493C125.685 189.415 126.302 190.02 127.2 190.306C128.091 190.573 129.168 190.477 130.432 190.018ZM125.973 168.453L128.83 167.416L125.312 172.915L123.206 173.679L125.973 168.453ZM148.244 185.458C146.96 185.924 145.662 186.191 144.347 186.26C143.046 186.301 141.963 186.161 141.097 185.84L141.448 183.806C142.299 184.087 143.288 184.216 144.414 184.193C145.533 184.15 146.634 183.932 147.717 183.539C149.161 183.014 150.144 182.408 150.665 181.719C151.2 181.003 151.318 180.234 151.019 179.412C150.808 178.831 150.454 178.448 149.956 178.266C149.451 178.063 148.879 177.987 148.239 178.038C147.592 178.069 146.758 178.179 145.738 178.368C144.367 178.593 143.247 178.727 142.377 178.771C141.501 178.794 140.672 178.607 139.893 178.209C139.133 177.804 138.56 177.07 138.174 176.007C137.694 174.684 137.852 173.401 138.649 172.158C139.446 170.915 140.827 169.937 142.792 169.224C143.815 168.853 144.889 168.622 146.013 168.531C147.131 168.42 148.1 168.466 148.922 168.667L148.612 170.72C146.981 170.29 145.263 170.403 143.459 171.059C142.095 171.554 141.15 172.169 140.623 172.905C140.115 173.634 140.004 174.39 140.288 175.172C140.506 175.773 140.871 176.185 141.383 176.408C141.916 176.623 142.505 176.716 143.152 176.685C143.792 176.634 144.656 176.513 145.744 176.323C147.095 176.105 148.195 175.978 149.044 175.942C149.894 175.906 150.695 176.08 151.447 176.465C152.2 176.85 152.762 177.554 153.133 178.577C153.635 179.96 153.454 181.274 152.589 182.519C151.738 183.736 150.289 184.716 148.244 185.458ZM165.276 179.274C163.712 179.842 162.185 180.011 160.694 179.781C159.223 179.543 157.915 178.94 156.769 177.971C155.616 176.983 154.759 175.717 154.198 174.173C153.638 172.629 153.486 171.118 153.744 169.64C154.002 168.161 154.618 166.86 155.594 165.734C156.59 164.601 157.87 163.75 159.434 163.182C160.798 162.687 162.109 162.517 163.368 162.673C164.64 162.801 165.773 163.264 166.766 164.061L165.565 165.722C164.76 165.13 163.887 164.788 162.946 164.699C161.999 164.589 161.053 164.705 160.111 165.047C158.968 165.462 158.03 166.098 157.297 166.954C156.576 167.783 156.127 168.763 155.947 169.895C155.788 171.019 155.927 172.183 156.364 173.386C156.808 174.61 157.452 175.601 158.295 176.362C159.151 177.095 160.125 177.559 161.217 177.752C162.322 177.919 163.445 177.794 164.588 177.38C165.531 177.037 166.334 176.53 166.998 175.858C167.661 175.186 168.112 174.364 168.349 173.393L170.337 173.897C170.086 175.145 169.518 176.237 168.632 177.171C167.738 178.086 166.62 178.787 165.276 179.274ZM175.36 157.4C177.426 156.65 179.199 156.597 180.68 157.239C182.155 157.861 183.259 159.185 183.995 161.21L187.555 171.016L185.509 171.759L184.614 169.292C184.431 170.289 183.952 171.189 183.177 171.993C182.422 172.789 181.403 173.42 180.12 173.886C178.355 174.526 176.798 174.615 175.45 174.151C174.101 173.688 173.176 172.764 172.674 171.38C172.186 170.037 172.274 168.779 172.938 167.608C173.622 166.429 175.027 165.453 177.153 164.682L182.176 162.858L181.826 161.895C181.331 160.532 180.575 159.637 179.559 159.212C178.534 158.767 177.29 158.81 175.827 159.342C174.824 159.706 173.923 160.225 173.125 160.901C172.319 161.557 171.69 162.296 171.24 163.117L169.699 161.873C170.253 160.9 171.026 160.029 172.018 159.26C173.003 158.472 174.117 157.852 175.36 157.4ZM179.839 172.081C181.042 171.644 181.976 170.999 182.642 170.144C183.301 169.27 183.651 168.235 183.694 167.039L182.754 164.452L177.791 166.254C175.084 167.237 174.073 168.671 174.757 170.556C175.092 171.478 175.709 172.083 176.607 172.369C177.498 172.636 178.576 172.54 179.839 172.081ZM190.781 155.444C190.897 154.199 191.348 153.128 192.134 152.23C192.94 151.324 194.075 150.606 195.538 150.075L196.292 152.15L195.77 152.306C194.105 152.91 192.988 153.894 192.416 155.259C191.845 156.624 191.894 158.229 192.564 160.074L195.491 168.135L193.355 168.91L187.611 153.089L189.657 152.346L190.781 155.444ZM204.91 146.672C206.976 145.922 208.749 145.868 210.231 146.511C211.705 147.133 212.81 148.457 213.545 150.482L217.105 160.288L215.06 161.031L214.164 158.564C213.981 159.561 213.502 160.461 212.727 161.264C211.972 162.061 210.953 162.692 209.67 163.158C207.905 163.798 206.349 163.887 205 163.423C203.652 162.959 202.726 162.036 202.224 160.652C201.736 159.309 201.824 158.051 202.488 156.879C203.172 155.7 204.577 154.725 206.703 153.954L211.726 152.13L211.377 151.167C210.882 149.804 210.126 148.909 209.109 148.484C208.085 148.039 206.841 148.082 205.377 148.613C204.374 148.977 203.474 149.497 202.675 150.173C201.869 150.829 201.241 151.568 200.79 152.389L199.249 151.145C199.803 150.172 200.577 149.301 201.569 148.532C202.553 147.743 203.667 147.123 204.91 146.672ZM209.389 161.353C210.592 160.916 211.527 160.271 212.193 159.416C212.851 158.542 213.201 157.506 213.244 156.311L212.305 153.724L207.342 155.526C204.635 156.509 203.623 157.943 204.308 159.828C204.642 160.75 205.259 161.354 206.158 161.641C207.049 161.908 208.126 161.812 209.389 161.353ZM214.931 137.247L217.457 136.33L222.357 151.232L220.703 151.833L214.931 137.247ZM223.893 157.994C223.451 158.154 223.016 158.142 222.586 157.958C222.169 157.746 221.883 157.43 221.731 157.009C221.57 156.568 221.59 156.152 221.789 155.762C221.98 155.352 222.307 155.063 222.768 154.896C223.209 154.736 223.635 154.751 224.045 154.943C224.447 155.115 224.729 155.421 224.889 155.862C225.042 156.283 225.026 156.709 224.842 157.139C224.65 157.549 224.334 157.834 223.893 157.994Z" fill="#B93200"/>
</g>
<defs>
<filter id="filter0_d" x="5.3457" y="3.39258" width="278.653" height="281.717" filterUnits="userSpaceOnUse" color-interpolation-filters="sRGB">
<feFlood flood-opacity="0" result="BackgroundImageFix"/>
<feColorMatrix in="SourceAlpha" type="matrix" values="0 0 0 0 0 0 0 0 0 0 0 0 0 0 0 0 0 0 127 0" result="hardAlpha"/>
<feOffset dy="4"/>
<feGaussianBlur stdDeviation="2"/>
<feComposite in2="hardAlpha" operator="out"/>
<feColorMatrix type="matrix" values="0 0 0 0 0 0 0 0 0 0 0 0 0 0 0 0 0 0 0.25 0"/>
<feBlend mode="normal" in2="BackgroundImageFix" result="effect1_dropShadow"/>
<feBlend mode="normal" in="SourceGraphic" in2="effect1_dropShadow" result="shape"/>
</filter>
</defs>
</svg>
