<svg width="290" height="282" viewBox="0 0 290 282" fill="none" xmlns="http://www.w3.org/2000/svg">
<path d="M243.313 105.012C263.574 160.818 235.835 222.092 181.356 241.87C126.878 261.648 66.2903 232.442 46.0299 176.635C25.7695 120.828 53.5086 59.5546 107.987 39.7764C162.465 19.9983 223.053 49.2052 243.313 105.012Z" fill="#BBBABA"/>
<path d="M100.14 111.406L107.784 132.461L105.949 133.127L86.2112 120.957L92.4139 138.042L90.188 138.85L82.5439 117.794L84.3788 117.128L104.147 129.288L97.9444 112.203L100.14 111.406ZM113.952 112.179C116.018 111.429 117.791 111.375 119.273 112.018C120.747 112.64 121.852 113.964 122.587 115.989L126.147 125.795L124.101 126.537L123.206 124.071C123.023 125.068 122.544 125.968 121.769 126.771C121.014 127.567 119.995 128.198 118.712 128.664C116.947 129.305 115.391 129.394 114.042 128.93C112.694 128.466 111.768 127.543 111.266 126.159C110.778 124.815 110.866 123.558 111.53 122.386C112.214 121.207 113.619 120.232 115.745 119.46L120.768 117.637L120.419 116.674C119.923 115.311 119.168 114.416 118.151 113.991C117.127 113.546 115.883 113.589 114.419 114.12C113.416 114.484 112.516 115.004 111.717 115.68C110.911 116.336 110.283 117.074 109.832 117.896L108.291 116.651C108.845 115.678 109.619 114.808 110.61 114.039C111.595 113.25 112.709 112.63 113.952 112.179ZM118.431 126.86C119.634 126.423 120.569 125.777 121.234 124.923C121.893 124.048 122.243 123.013 122.286 121.818L121.347 119.231L116.384 121.033C113.677 122.016 112.665 123.449 113.349 125.334C113.684 126.257 114.301 126.861 115.199 127.148C116.091 127.415 117.168 127.318 118.431 126.86ZM115.141 108.888C114.679 109.055 114.232 109.104 113.798 109.035C113.357 108.945 112.857 108.786 112.297 108.558C111.827 108.389 111.46 108.284 111.196 108.243C110.944 108.176 110.698 108.186 110.458 108.273C109.996 108.44 109.687 108.746 109.53 109.188C109.373 109.631 109.394 110.157 109.592 110.766L108.299 111.236C107.975 110.218 107.945 109.322 108.207 108.545C108.47 107.769 109.003 107.235 109.805 106.944C110.266 106.777 110.704 106.731 111.117 106.808C111.551 106.877 112.071 107.029 112.678 107.263C113.101 107.427 113.448 107.539 113.72 107.599C113.991 107.66 114.247 107.646 114.488 107.559C114.929 107.399 115.232 107.107 115.396 106.684C115.553 106.242 115.546 105.722 115.375 105.126L116.668 104.657C116.985 105.654 117.012 106.54 116.749 107.317C116.479 108.073 115.943 108.597 115.141 108.888ZM138.528 121.47C137.004 122.024 135.506 122.181 134.036 121.944C132.558 121.686 131.246 121.073 130.1 120.104C128.954 119.136 128.101 117.88 127.54 116.336C126.979 114.792 126.828 113.281 127.086 111.803C127.344 110.325 127.96 109.023 128.936 107.897C129.912 106.771 131.161 105.931 132.686 105.378C134.21 104.825 135.707 104.667 137.178 104.905C138.648 105.142 139.947 105.749 141.073 106.725C142.218 107.693 143.072 108.949 143.632 110.493C144.193 112.037 144.344 113.548 144.086 115.027C143.849 116.497 143.246 117.806 142.277 118.952C141.302 120.077 140.052 120.917 138.528 121.47ZM137.84 119.575C138.963 119.168 139.874 118.553 140.575 117.731C141.288 116.882 141.724 115.896 141.883 114.771C142.042 113.647 141.903 112.483 141.467 111.28C141.03 110.076 140.39 109.095 139.546 108.334C138.703 107.574 137.739 107.107 136.654 106.933C135.583 106.732 134.486 106.835 133.363 107.243C132.24 107.651 131.322 108.279 130.608 109.128C129.908 109.949 129.468 110.926 129.289 112.058C129.13 113.182 129.269 114.346 129.706 115.549C130.142 116.753 130.783 117.734 131.626 118.495C132.49 119.248 133.457 119.725 134.529 119.926C135.613 120.1 136.717 119.983 137.84 119.575ZM163.032 112.574C161.749 113.04 160.45 113.307 159.136 113.376C157.835 113.417 156.751 113.277 155.886 112.956L156.237 110.922C157.088 111.203 158.076 111.332 159.203 111.309C160.322 111.266 161.423 111.048 162.506 110.654C163.949 110.13 164.932 109.524 165.454 108.835C165.988 108.119 166.106 107.35 165.808 106.528C165.597 105.946 165.242 105.564 164.745 105.382C164.24 105.179 163.668 105.103 163.028 105.154C162.381 105.185 161.547 105.295 160.526 105.484C159.156 105.709 158.035 105.843 157.166 105.886C156.289 105.91 155.461 105.722 154.681 105.325C153.921 104.92 153.349 104.186 152.963 103.123C152.482 101.799 152.641 100.516 153.438 99.2738C154.235 98.0312 155.616 97.0531 157.581 96.3397C158.604 95.9684 159.677 95.7375 160.802 95.6469C161.919 95.5363 162.889 95.5815 163.711 95.7824L163.401 97.8355C161.77 97.4063 160.052 97.5193 158.247 98.1745C156.884 98.6696 155.938 99.2851 155.411 100.021C154.904 100.75 154.793 101.505 155.076 102.287C155.295 102.889 155.66 103.301 156.172 103.524C156.704 103.739 157.294 103.831 157.941 103.801C158.581 103.75 159.445 103.629 160.533 103.439C161.883 103.221 162.984 103.094 163.833 103.058C164.682 103.022 165.483 103.196 166.236 103.581C166.988 103.966 167.55 104.67 167.921 105.692C168.424 107.076 168.243 108.39 167.378 109.635C166.526 110.852 165.078 111.831 163.032 112.574ZM184.597 96.3701L171.363 101.175C172.08 102.776 173.196 103.88 174.71 104.487C176.217 105.075 177.843 105.052 179.587 104.419C180.57 104.062 181.411 103.564 182.109 102.925C182.8 102.265 183.323 101.486 183.677 100.585L185.382 101.532C184.986 102.629 184.337 103.591 183.434 104.418C182.552 105.238 181.479 105.877 180.215 106.336C178.591 106.925 177.023 107.109 175.513 106.886C174.015 106.635 172.693 106.026 171.547 105.057C170.401 104.089 169.547 102.833 168.987 101.289C168.426 99.7445 168.255 98.2407 168.472 96.7772C168.71 95.3065 169.287 94.0191 170.202 92.9151C171.138 91.8038 172.338 90.9824 173.802 90.4509C175.265 89.9195 176.703 89.7835 178.113 90.0431C179.524 90.3026 180.782 90.9239 181.888 91.9069C182.986 92.8698 183.819 94.1333 184.387 95.6974L184.597 96.3701ZM174.468 92.2858C172.944 92.839 171.839 93.7963 171.153 95.1574C170.479 96.4912 170.356 97.9657 170.784 99.5807L182.003 95.5075C181.295 93.9944 180.245 92.9458 178.853 92.3619C177.473 91.7506 176.012 91.7252 174.468 92.2858ZM76.5671 169.634L63.3324 174.439C64.0496 176.039 65.1654 177.143 66.6797 177.751C68.1867 178.339 69.8125 178.316 71.5571 177.683C72.5397 177.326 73.3802 176.828 74.0786 176.188C74.7697 175.529 75.2923 174.749 75.6463 173.849L77.3518 174.796C76.9558 175.893 76.3064 176.855 75.4038 177.682C74.5212 178.502 73.4482 179.141 72.1849 179.599C70.5606 180.189 68.9931 180.372 67.4822 180.149C65.9842 179.899 64.6622 179.289 63.5162 178.321C62.3703 177.352 61.5171 176.096 60.9565 174.552C60.3959 173.008 60.2245 171.504 60.4421 170.041C60.6798 168.57 61.2565 167.283 62.172 166.179C63.1076 165.067 64.3073 164.246 65.7712 163.715C67.235 163.183 68.6722 163.047 70.0828 163.307C71.4934 163.566 72.7516 164.188 73.8574 165.17C74.9559 166.133 75.7891 167.397 76.357 168.961L76.5671 169.634ZM66.4373 165.549C64.9133 166.103 63.8083 167.06 63.1222 168.421C62.449 169.755 62.3261 171.229 62.7536 172.844L73.9731 168.771C73.2649 167.258 72.2147 166.209 70.8225 165.625C69.4431 165.014 67.9813 164.989 66.4373 165.549ZM87.8716 173.904C86.5882 174.37 85.2895 174.638 83.9753 174.706C82.674 174.747 81.5905 174.607 80.7249 174.286L81.0759 172.252C81.9269 172.533 82.9156 172.662 84.042 172.639C85.1611 172.596 86.2621 172.378 87.345 171.985C88.7888 171.461 89.7715 170.854 90.2931 170.166C90.8275 169.45 90.9455 168.68 90.647 167.858C90.4359 167.277 90.0816 166.895 89.5841 166.712C89.0793 166.51 88.5071 166.434 87.8673 166.484C87.2202 166.515 86.3863 166.625 85.3656 166.814C83.9948 167.039 82.8747 167.174 82.0053 167.217C81.1286 167.24 80.3003 167.053 79.5205 166.655C78.7606 166.25 78.1878 165.516 77.802 164.453C77.3215 163.13 77.4798 161.847 78.2769 160.604C79.0741 159.362 80.4552 158.384 82.4204 157.67C83.4431 157.299 84.5167 157.068 85.6413 156.977C86.7587 156.867 87.7283 156.912 88.5502 157.113L88.2402 159.166C86.6092 158.737 84.8913 158.85 83.0865 159.505C81.7229 160 80.7776 160.616 80.2505 161.352C79.7434 162.08 79.6318 162.836 79.9157 163.618C80.1341 164.219 80.4994 164.632 81.0114 164.854C81.5435 165.07 82.1331 165.162 82.7801 165.131C83.4199 165.081 84.2839 164.96 85.3721 164.769C86.7228 164.551 87.8228 164.424 88.6722 164.388C89.5215 164.352 90.3225 164.526 91.075 164.911C91.8276 165.296 92.3895 166 92.7608 167.023C93.2631 168.406 93.082 169.721 92.2174 170.965C91.3656 172.182 89.917 173.162 87.8716 173.904ZM106.986 148.888L114.849 170.545L112.713 171.32L109.514 162.507C109.223 163.77 108.655 164.861 107.809 165.781C106.975 166.674 105.917 167.353 104.633 167.819C103.129 168.365 101.656 168.526 100.212 168.301C98.7818 168.048 97.5035 167.434 96.3776 166.459C95.2517 165.483 94.4012 164.203 93.8261 162.619C93.2583 161.055 93.0932 159.537 93.3309 158.067C93.5686 156.596 94.1689 155.311 95.1319 154.213C96.0875 153.094 97.3073 152.265 98.7912 151.727C100.115 151.246 101.4 151.097 102.646 151.28C103.913 151.456 105.056 151.949 106.077 152.759L104.941 149.63L106.986 148.888ZM104.126 165.859C105.229 165.458 106.13 164.847 106.831 164.025C107.544 163.177 107.98 162.19 108.139 161.065C108.318 159.934 108.19 158.766 107.753 157.563C107.316 156.36 106.669 155.392 105.813 154.658C104.97 153.898 104.002 153.421 102.91 153.227C101.839 153.026 100.752 153.126 99.6487 153.526C98.5257 153.934 97.6077 154.562 96.8946 155.411C96.2016 156.253 95.7655 157.24 95.5863 158.371C95.4198 159.476 95.555 160.63 95.9918 161.833C96.4286 163.036 97.0688 164.018 97.9122 164.778C98.7758 165.531 99.7433 166.008 100.815 166.21C101.899 166.383 103.003 166.266 104.126 165.859ZM127.191 141.552L132.935 157.374L130.89 158.116L129.842 155.229C129.63 156.395 129.131 157.428 128.345 158.326C127.551 159.204 126.523 159.872 125.26 160.331C123.194 161.081 121.352 161.102 119.734 160.396C118.129 159.663 116.922 158.183 116.114 155.957L112.784 146.783L114.919 146.008L118.173 154.971C118.778 156.636 119.647 157.75 120.783 158.314C121.918 158.877 123.247 158.883 124.771 158.329C126.436 157.725 127.567 156.747 128.166 155.395C128.757 154.023 128.725 152.434 128.07 150.629L125.056 142.328L127.191 141.552ZM150.061 142.952L136.826 147.757C137.544 149.357 138.659 150.462 140.174 151.069C141.681 151.657 143.307 151.634 145.051 151.001C146.034 150.644 146.874 150.146 147.573 149.507C148.264 148.847 148.786 148.067 149.14 147.167L150.846 148.114C150.45 149.211 149.8 150.173 148.898 151C148.015 151.82 146.942 152.459 145.679 152.918C144.055 153.507 142.487 153.691 140.976 153.467C139.478 153.217 138.156 152.608 137.01 151.639C135.864 150.671 135.011 149.414 134.451 147.87C133.89 146.326 133.718 144.823 133.936 143.359C134.174 141.888 134.75 140.601 135.666 139.497C136.602 138.386 137.801 137.564 139.265 137.033C140.729 136.501 142.166 136.365 143.577 136.625C144.987 136.885 146.246 137.506 147.351 138.489C148.45 139.452 149.283 140.715 149.851 142.279L150.061 142.952ZM139.931 138.868C138.407 139.421 137.302 140.378 136.616 141.739C135.943 143.073 135.82 144.548 136.248 146.163L147.467 142.089C146.759 140.576 145.709 139.528 144.317 138.944C142.937 138.332 141.475 138.307 139.931 138.868ZM163.682 146.382C162.118 146.95 160.59 147.118 159.099 146.888C157.629 146.65 156.32 146.047 155.174 145.079C154.021 144.09 153.164 142.824 152.604 141.28C152.043 139.736 151.892 138.225 152.15 136.747C152.407 135.269 153.024 133.967 154 132.841C154.995 131.708 156.275 130.857 157.839 130.289C159.203 129.794 160.515 129.625 161.774 129.78C163.046 129.909 164.179 130.371 165.171 131.168L163.97 132.83C163.165 132.237 162.292 131.896 161.352 131.806C160.404 131.696 159.459 131.812 158.517 132.154C157.374 132.569 156.435 133.205 155.702 134.061C154.982 134.89 154.532 135.87 154.353 137.002C154.194 138.127 154.333 139.291 154.769 140.494C155.213 141.717 155.857 142.709 156.701 143.469C157.557 144.202 158.531 144.666 159.623 144.86C160.727 145.026 161.851 144.902 162.994 144.487C163.936 144.145 164.739 143.637 165.403 142.965C166.067 142.293 166.518 141.471 166.755 140.5L168.742 141.004C168.492 142.252 167.924 143.344 167.037 144.278C166.144 145.193 165.025 145.894 163.682 146.382ZM164.766 153.307C163.784 153.664 162.858 153.739 161.988 153.533L162.085 152.204C162.805 152.374 163.536 152.324 164.278 152.055C164.879 151.837 165.297 151.549 165.53 151.192C165.764 150.835 165.797 150.425 165.629 149.964C165.476 149.543 165.192 149.261 164.777 149.116C164.388 148.985 163.884 149.032 163.262 149.258L162.57 149.509L162.298 146.51L163.592 146.04L163.774 147.948C164.625 147.73 165.348 147.751 165.942 148.012C166.543 148.293 166.968 148.775 167.215 149.457C167.506 150.259 167.425 151.003 166.971 151.69C166.524 152.397 165.789 152.936 164.766 153.307ZM173.766 124.508C175.831 123.758 177.605 123.704 179.086 124.346C180.56 124.969 181.665 126.292 182.4 128.318L185.96 138.123L183.915 138.866L183.019 136.4C182.837 137.396 182.358 138.297 181.583 139.1C180.828 139.896 179.808 140.527 178.525 140.993C176.76 141.634 175.204 141.722 173.855 141.258C172.507 140.795 171.581 139.871 171.079 138.488C170.591 137.144 170.679 135.886 171.344 134.715C172.028 133.536 173.432 132.561 175.558 131.789L180.581 129.965L180.232 129.003C179.737 127.639 178.981 126.745 177.964 126.32C176.94 125.874 175.696 125.917 174.232 126.449C173.23 126.813 172.329 127.333 171.53 128.009C170.724 128.664 170.096 129.403 169.645 130.225L168.104 128.98C168.659 128.007 169.432 127.136 170.424 126.368C171.408 125.579 172.522 124.959 173.766 124.508ZM178.244 139.188C179.448 138.752 180.382 138.106 181.048 137.252C181.706 136.377 182.057 135.342 182.099 134.146L181.16 131.56L176.197 133.361C173.49 134.344 172.478 135.778 173.163 137.663C173.498 138.585 174.114 139.19 175.013 139.477C175.904 139.743 176.981 139.647 178.244 139.188ZM205.968 105.599L214.071 127.918L212.026 128.661L210.89 125.532C210.634 126.828 210.077 127.95 209.218 128.897C208.379 129.837 207.298 130.547 205.974 131.028C204.49 131.566 203.023 131.713 201.572 131.468C200.122 131.223 198.833 130.613 197.707 129.637C196.581 128.662 195.735 127.392 195.167 125.828C194.599 124.263 194.434 122.746 194.672 121.275C194.909 119.805 195.51 118.52 196.473 117.421C197.428 116.303 198.648 115.474 200.132 114.935C201.415 114.469 202.667 114.322 203.886 114.492C205.118 114.635 206.25 115.097 207.283 115.88L203.833 106.375L205.968 105.599ZM205.467 129.067C206.57 128.667 207.471 128.056 208.171 127.234C208.885 126.385 209.321 125.398 209.48 124.274C209.659 123.142 209.53 121.975 209.093 120.772C208.657 119.568 208.006 118.59 207.143 117.837C206.299 117.077 205.335 116.609 204.251 116.436C203.18 116.235 202.092 116.334 200.989 116.735C199.866 117.142 198.948 117.771 198.235 118.62C197.535 119.441 197.095 120.418 196.916 121.55C196.757 122.674 196.896 123.838 197.332 125.041C197.769 126.244 198.409 127.226 199.253 127.987C200.116 128.74 201.084 129.217 202.156 129.418C203.24 129.592 204.344 129.475 205.467 129.067ZM219.765 107.807C221.831 107.058 223.604 107.004 225.086 107.646C226.56 108.268 227.665 109.592 228.4 111.618L231.96 121.423L229.915 122.166L229.019 119.699C228.836 120.696 228.357 121.596 227.582 122.4C226.827 123.196 225.808 123.827 224.525 124.293C222.76 124.934 221.204 125.022 219.855 124.558C218.507 124.095 217.581 123.171 217.079 121.787C216.591 120.444 216.679 119.186 217.343 118.015C218.027 116.836 219.432 115.861 221.558 115.089L226.581 113.265L226.232 112.303C225.737 110.939 224.981 110.045 223.964 109.62C222.94 109.174 221.696 109.217 220.232 109.749C219.229 110.113 218.329 110.633 217.53 111.308C216.724 111.964 216.096 112.703 215.645 113.525L214.104 112.28C214.658 111.307 215.432 110.436 216.424 109.668C217.408 108.879 218.522 108.259 219.765 107.807ZM224.244 122.488C225.447 122.052 226.382 121.406 227.048 120.551C227.706 119.677 228.056 118.642 228.099 117.446L227.16 114.859L222.197 116.661C219.49 117.644 218.478 119.078 219.163 120.963C219.498 121.885 220.114 122.49 221.013 122.776C221.904 123.043 222.981 122.947 224.244 122.488ZM108.249 182.337C110.234 181.616 111.996 181.623 113.534 182.358C115.092 183.087 116.275 184.563 117.083 186.789L120.414 195.963L118.278 196.739L115.024 187.775C114.427 186.131 113.571 185.023 112.456 184.452C111.361 183.874 110.091 183.847 108.647 184.371C107.003 184.968 105.895 185.949 105.324 187.314C104.746 188.658 104.78 190.223 105.428 192.008L108.442 200.31L106.307 201.085L103.052 192.121C102.455 190.477 101.599 189.369 100.484 188.798C99.3891 188.22 98.1097 188.197 96.6458 188.728C95.0215 189.318 93.9138 190.299 93.3225 191.671C92.7441 193.016 92.7788 194.58 93.4267 196.365L96.4407 204.667L94.305 205.442L88.5611 189.621L90.6064 188.878L91.6548 191.766C91.8668 190.599 92.3795 189.573 93.1929 188.688C94.0062 187.803 95.0646 187.123 96.368 186.65C97.6915 186.17 98.9364 186.035 100.103 186.247C101.289 186.452 102.323 187.019 103.205 187.947C103.408 186.693 103.945 185.579 104.817 184.604C105.701 183.602 106.846 182.846 108.249 182.337ZM125.952 175.91C128.018 175.16 129.791 175.106 131.273 175.748C132.747 176.371 133.851 177.694 134.587 179.72L138.147 189.526L136.101 190.268L135.206 187.802C135.023 188.799 134.544 189.699 133.769 190.502C133.014 191.298 131.995 191.929 130.712 192.395C128.947 193.036 127.39 193.124 126.042 192.661C124.693 192.197 123.768 191.273 123.266 189.89C122.778 188.546 122.866 187.289 123.53 186.117C124.214 184.938 125.619 183.963 127.745 183.191L132.768 181.367L132.418 180.405C131.923 179.041 131.167 178.147 130.151 177.722C129.127 177.276 127.883 177.32 126.419 177.851C125.416 178.215 124.515 178.735 123.717 179.411C122.911 180.066 122.283 180.805 121.832 181.627L120.291 180.382C120.845 179.409 121.618 178.538 122.61 177.77C123.595 176.981 124.709 176.361 125.952 175.91ZM130.431 190.591C131.634 190.154 132.569 189.508 133.234 188.654C133.893 187.779 134.243 186.744 134.286 185.548L133.347 182.962L128.384 184.763C125.676 185.746 124.665 187.18 125.349 189.065C125.684 189.987 126.301 190.592 127.199 190.879C128.09 191.145 129.168 191.049 130.431 190.591ZM125.972 169.026L128.83 167.988L125.311 173.487L123.205 174.251L125.972 169.026ZM148.243 186.03C146.96 186.496 145.661 186.764 144.347 186.832C143.045 186.873 141.962 186.733 141.096 186.412L141.447 184.378C142.298 184.659 143.287 184.788 144.413 184.765C145.533 184.722 146.634 184.504 147.716 184.111C149.16 183.587 150.143 182.98 150.665 182.292C151.199 181.576 151.317 180.806 151.018 179.984C150.807 179.403 150.453 179.021 149.955 178.838C149.451 178.636 148.878 178.56 148.239 178.61C147.592 178.641 146.758 178.751 145.737 178.94C144.366 179.165 143.246 179.299 142.377 179.343C141.5 179.366 140.672 179.179 139.892 178.781C139.132 178.376 138.559 177.642 138.173 176.579C137.693 175.256 137.851 173.973 138.648 172.73C139.445 171.488 140.827 170.51 142.792 169.796C143.814 169.425 144.888 169.194 146.013 169.103C147.13 168.993 148.1 169.038 148.922 169.239L148.612 171.292C146.981 170.863 145.263 170.976 143.458 171.631C142.094 172.126 141.149 172.741 140.622 173.478C140.115 174.206 140.003 174.962 140.287 175.744C140.506 176.345 140.871 176.758 141.383 176.98C141.915 177.195 142.504 177.288 143.152 177.257C143.791 177.206 144.655 177.086 145.743 176.895C147.094 176.677 148.194 176.55 149.044 176.514C149.893 176.478 150.694 176.652 151.446 177.037C152.199 177.422 152.761 178.126 153.132 179.149C153.635 180.532 153.453 181.846 152.589 183.091C151.737 184.308 150.288 185.288 148.243 186.03ZM165.276 179.847C163.711 180.415 162.184 180.583 160.693 180.353C159.222 180.115 157.914 179.512 156.768 178.544C155.615 177.555 154.758 176.289 154.198 174.745C153.637 173.201 153.486 171.69 153.743 170.212C154.001 168.734 154.618 167.432 155.594 166.306C156.589 165.173 157.869 164.322 159.433 163.754C160.797 163.259 162.108 163.09 163.368 163.245C164.64 163.373 165.772 163.836 166.765 164.633L165.564 166.295C164.759 165.702 163.886 165.361 162.946 165.271C161.998 165.161 161.053 165.277 160.11 165.619C158.967 166.034 158.029 166.67 157.296 167.526C156.576 168.355 156.126 169.335 155.947 170.467C155.788 171.592 155.926 172.755 156.363 173.959C156.807 175.182 157.451 176.174 158.295 176.934C159.151 177.667 160.125 178.131 161.216 178.325C162.321 178.491 163.445 178.367 164.588 177.952C165.53 177.61 166.333 177.102 166.997 176.43C167.661 175.758 168.111 174.936 168.349 173.965L170.336 174.469C170.086 175.717 169.517 176.809 168.631 177.743C167.738 178.658 166.619 179.359 165.276 179.847ZM175.359 157.972C177.425 157.223 179.198 157.169 180.68 157.811C182.154 158.434 183.259 159.757 183.994 161.783L187.554 171.588L185.509 172.331L184.613 169.865C184.43 170.861 183.951 171.762 183.176 172.565C182.421 173.361 181.402 173.992 180.119 174.458C178.354 175.099 176.798 175.187 175.449 174.723C174.101 174.26 173.175 173.336 172.673 171.952C172.185 170.609 172.273 169.351 172.937 168.18C173.621 167.001 175.026 166.026 177.152 165.254L182.175 163.43L181.826 162.468C181.331 161.104 180.575 160.21 179.558 159.785C178.534 159.339 177.29 159.382 175.826 159.914C174.823 160.278 173.923 160.798 173.124 161.474C172.318 162.129 171.69 162.868 171.239 163.69L169.698 162.445C170.252 161.472 171.026 160.601 172.018 159.833C173.002 159.044 174.116 158.424 175.359 157.972ZM179.838 172.653C181.041 172.217 181.976 171.571 182.642 170.716C183.3 169.842 183.65 168.807 183.693 167.611L182.754 165.024L177.791 166.826C175.084 167.809 174.072 169.243 174.757 171.128C175.091 172.05 175.708 172.655 176.607 172.941C177.498 173.208 178.575 173.112 179.838 172.653ZM190.781 156.017C190.896 154.772 191.347 153.7 192.133 152.802C192.939 151.897 194.074 151.178 195.538 150.647L196.291 152.722L195.769 152.878C194.105 153.482 192.987 154.467 192.416 155.831C191.845 157.196 191.894 158.801 192.564 160.646L195.49 168.707L193.355 169.483L187.611 153.661L189.656 152.918L190.781 156.017ZM204.91 147.244C206.975 146.495 208.749 146.441 210.23 147.083C211.704 147.705 212.809 149.029 213.544 151.055L217.104 160.86L215.059 161.603L214.163 159.136C213.981 160.133 213.502 161.033 212.727 161.837C211.972 162.633 210.953 163.264 209.669 163.73C207.905 164.37 206.348 164.459 205 163.995C203.651 163.532 202.726 162.608 202.223 161.224C201.736 159.881 201.824 158.623 202.488 157.452C203.172 156.273 204.577 155.297 206.702 154.526L211.725 152.702L211.376 151.74C210.881 150.376 210.125 149.482 209.108 149.056C208.084 148.611 206.84 148.654 205.376 149.186C204.374 149.55 203.473 150.07 202.674 150.745C201.868 151.401 201.24 152.14 200.79 152.962L199.248 151.717C199.803 150.744 200.576 149.873 201.568 149.104C202.553 148.316 203.667 147.696 204.91 147.244ZM209.389 161.925C210.592 161.488 211.526 160.843 212.192 159.988C212.85 159.114 213.201 158.079 213.243 156.883L212.304 154.296L207.341 156.098C204.634 157.081 203.623 158.515 204.307 160.4C204.642 161.322 205.258 161.927 206.157 162.213C207.048 162.48 208.125 162.384 209.389 161.925ZM214.93 137.819L217.457 136.902L222.356 151.804L220.702 152.405L214.93 137.819ZM223.892 158.566C223.451 158.726 223.015 158.714 222.585 158.53C222.168 158.318 221.883 158.002 221.73 157.581C221.57 157.14 221.589 156.724 221.788 156.334C221.98 155.924 222.306 155.636 222.767 155.468C223.208 155.308 223.634 155.324 224.044 155.515C224.447 155.687 224.728 155.993 224.888 156.434C225.041 156.855 225.025 157.281 224.841 157.711C224.649 158.121 224.333 158.406 223.892 158.566Z" fill="black"/>
</svg>
