<svg width="118" height="112" viewBox="0 0 118 112" fill="none" xmlns="http://www.w3.org/2000/svg">
<g clip-path="url(#clip0)">
<path d="M114.423 111.711C116.015 111.711 117.305 110.421 117.305 108.829C117.305 107.238 116.015 105.947 114.423 105.947C112.831 105.947 111.541 107.238 111.541 108.829C111.541 110.421 112.831 111.711 114.423 111.711Z" fill="#B93200"/>
<path d="M86.538 111.711C88.1297 111.711 89.42 110.421 89.42 108.829C89.42 107.238 88.1297 105.947 86.538 105.947C84.9463 105.947 83.656 107.238 83.656 108.829C83.656 110.421 84.9463 111.711 86.538 111.711Z" fill="#B93200"/>
<path d="M58.653 111.711C60.2447 111.711 61.535 110.421 61.535 108.829C61.535 107.238 60.2447 105.947 58.653 105.947C57.0613 105.947 55.771 107.238 55.771 108.829C55.771 110.421 57.0613 111.711 58.653 111.711Z" fill="#B93200"/>
<path d="M27.886 108.825C27.886 108.256 28.055 107.699 28.3715 107.225C28.6881 106.751 29.1381 106.382 29.6645 106.164C30.1909 105.946 30.7702 105.889 31.329 106C31.8879 106.111 32.4013 106.385 32.8042 106.788C33.2071 107.191 33.4815 107.704 33.5927 108.263C33.7038 108.822 33.6467 109.401 33.4287 109.928C33.2106 110.454 32.8414 110.904 32.3676 111.221C31.8938 111.537 31.3368 111.706 30.767 111.706C30.3886 111.707 30.0138 111.632 29.6642 111.488C29.3145 111.343 28.9968 111.131 28.7292 110.863C28.4617 110.596 28.2495 110.278 28.1048 109.928C27.9601 109.579 27.8857 109.204 27.886 108.825Z" fill="#B93200"/>
<path d="M2.882 111.711C4.47368 111.711 5.764 110.421 5.764 108.829C5.764 107.238 4.47368 105.947 2.882 105.947C1.29032 105.947 0 107.238 0 108.829C0 110.421 1.29032 111.711 2.882 111.711Z" fill="#B93200"/>
<path d="M114.423 90.5218C116.015 90.5218 117.305 89.2315 117.305 87.6398C117.305 86.0481 116.015 84.7578 114.423 84.7578C112.831 84.7578 111.541 86.0481 111.541 87.6398C111.541 89.2315 112.831 90.5218 114.423 90.5218Z" fill="#B93200"/>
<path d="M86.538 90.5218C88.1297 90.5218 89.42 89.2315 89.42 87.6398C89.42 86.0481 88.1297 84.7578 86.538 84.7578C84.9463 84.7578 83.656 86.0481 83.656 87.6398C83.656 89.2315 84.9463 90.5218 86.538 90.5218Z" fill="#B93200"/>
<path d="M58.653 90.5218C60.2447 90.5218 61.535 89.2315 61.535 87.6398C61.535 86.0481 60.2447 84.7578 58.653 84.7578C57.0613 84.7578 55.771 86.0481 55.771 87.6398C55.771 89.2315 57.0613 90.5218 58.653 90.5218Z" fill="#B93200"/>
<path d="M27.886 87.6387C27.8866 87.0691 28.0561 86.5123 28.373 86.039C28.6899 85.5656 29.1401 85.1968 29.6666 84.9792C30.1931 84.7616 30.7722 84.705 31.3309 84.8165C31.8896 84.928 32.4026 85.2026 32.8052 85.6056C33.2079 86.0087 33.4819 86.522 33.5929 87.0808C33.7038 87.6396 33.6466 88.2187 33.4284 88.7449C33.2103 89.2712 32.841 89.721 32.3673 90.0374C31.8936 90.3539 31.3367 90.5227 30.767 90.5227C30.3884 90.5227 30.0135 90.4481 29.6638 90.3031C29.3141 90.1582 28.9963 89.9457 28.7288 89.6779C28.4612 89.41 28.249 89.0921 28.1044 88.7422C27.9598 88.3923 27.8856 88.0173 27.886 87.6387Z" fill="#B93200"/>
<path d="M2.882 90.5218C4.47368 90.5218 5.764 89.2315 5.764 87.6398C5.764 86.0481 4.47368 84.7578 2.882 84.7578C1.29032 84.7578 0 86.0481 0 87.6398C0 89.2315 1.29032 90.5218 2.882 90.5218Z" fill="#B93200"/>
<path d="M114.423 69.3324C116.015 69.3324 117.305 68.042 117.305 66.4504C117.305 64.8587 116.015 63.5684 114.423 63.5684C112.831 63.5684 111.541 64.8587 111.541 66.4504C111.541 68.042 112.831 69.3324 114.423 69.3324Z" fill="#B93200"/>
<path d="M86.538 69.3324C88.1297 69.3324 89.42 68.042 89.42 66.4504C89.42 64.8587 88.1297 63.5684 86.538 63.5684C84.9463 63.5684 83.656 64.8587 83.656 66.4504C83.656 68.042 84.9463 69.3324 86.538 69.3324Z" fill="#B93200"/>
<path d="M58.653 69.3324C60.2447 69.3324 61.535 68.042 61.535 66.4504C61.535 64.8587 60.2447 63.5684 58.653 63.5684C57.0613 63.5684 55.771 64.8587 55.771 66.4504C55.771 68.042 57.0613 69.3324 58.653 69.3324Z" fill="#B93200"/>
<path d="M27.886 66.4503C27.886 65.8805 28.055 65.3235 28.3715 64.8497C28.6881 64.376 29.1381 64.0067 29.6645 63.7886C30.1909 63.5706 30.7702 63.5135 31.329 63.6247C31.8879 63.7359 32.4013 64.0102 32.8042 64.4132C33.2071 64.8161 33.4815 65.3294 33.5927 65.8883C33.7038 66.4471 33.6467 67.0264 33.4287 67.5528C33.2106 68.0793 32.8414 68.5292 32.3676 68.8458C31.8938 69.1624 31.3368 69.3313 30.767 69.3313C30.3886 69.3316 30.0138 69.2573 29.6642 69.1126C29.3145 68.9679 28.9968 68.7557 28.7292 68.4881C28.4617 68.2205 28.2495 67.9028 28.1048 67.5532C27.9601 67.2035 27.8857 66.8287 27.886 66.4503Z" fill="#B93200"/>
<path d="M2.882 69.3324C4.47368 69.3324 5.764 68.042 5.764 66.4504C5.764 64.8587 4.47368 63.5684 2.882 63.5684C1.29032 63.5684 0 64.8587 0 66.4504C0 68.042 1.29032 69.3324 2.882 69.3324Z" fill="#B93200"/>
<path d="M114.423 48.1429C116.015 48.1429 117.305 46.8526 117.305 45.2609C117.305 43.6692 116.015 42.3789 114.423 42.3789C112.831 42.3789 111.541 43.6692 111.541 45.2609C111.541 46.8526 112.831 48.1429 114.423 48.1429Z" fill="#B93200"/>
<path d="M86.538 48.1429C88.1297 48.1429 89.42 46.8526 89.42 45.2609C89.42 43.6692 88.1297 42.3789 86.538 42.3789C84.9463 42.3789 83.656 43.6692 83.656 45.2609C83.656 46.8526 84.9463 48.1429 86.538 48.1429Z" fill="#B93200"/>
<path d="M58.653 48.1429C60.2447 48.1429 61.535 46.8526 61.535 45.2609C61.535 43.6692 60.2447 42.3789 58.653 42.3789C57.0613 42.3789 55.771 43.6692 55.771 45.2609C55.771 46.8526 57.0613 48.1429 58.653 48.1429Z" fill="#B93200"/>
<path d="M27.886 45.2619C27.886 44.692 28.055 44.135 28.3715 43.6613C28.6881 43.1875 29.1381 42.8182 29.6645 42.6002C30.1909 42.3821 30.7702 42.3251 31.329 42.4362C31.8879 42.5474 32.4013 42.8218 32.8042 43.2247C33.2071 43.6276 33.4815 44.1409 33.5927 44.6998C33.7038 45.2587 33.6467 45.8379 33.4287 46.3644C33.2106 46.8908 32.8414 47.3408 32.3676 47.6573C31.8938 47.9739 31.3368 48.1429 30.767 48.1429C30.0029 48.1429 29.2701 47.8393 28.7298 47.299C28.1895 46.7587 27.886 46.0259 27.886 45.2619Z" fill="#B93200"/>
<path d="M2.882 48.1429C4.47368 48.1429 5.764 46.8526 5.764 45.2609C5.764 43.6692 4.47368 42.3789 2.882 42.3789C1.29032 42.3789 0 43.6692 0 45.2609C0 46.8526 1.29032 48.1429 2.882 48.1429Z" fill="#B93200"/>
<path d="M114.423 26.9535C116.015 26.9535 117.305 25.6631 117.305 24.0715C117.305 22.4798 116.015 21.1895 114.423 21.1895C112.831 21.1895 111.541 22.4798 111.541 24.0715C111.541 25.6631 112.831 26.9535 114.423 26.9535Z" fill="#B93200"/>
<path d="M86.538 26.9535C88.1297 26.9535 89.42 25.6631 89.42 24.0715C89.42 22.4798 88.1297 21.1895 86.538 21.1895C84.9463 21.1895 83.656 22.4798 83.656 24.0715C83.656 25.6631 84.9463 26.9535 86.538 26.9535Z" fill="#B93200"/>
<path d="M58.653 26.9535C60.2447 26.9535 61.535 25.6631 61.535 24.0715C61.535 22.4798 60.2447 21.1895 58.653 21.1895C57.0613 21.1895 55.771 22.4798 55.771 24.0715C55.771 25.6631 57.0613 26.9535 58.653 26.9535Z" fill="#B93200"/>
<path d="M27.886 24.0704C27.8866 23.5007 28.0561 22.944 28.373 22.4706C28.6899 21.9972 29.1401 21.6284 29.6666 21.4108C30.1931 21.1932 30.7722 21.1366 31.3309 21.2481C31.8896 21.3596 32.4026 21.6342 32.8052 22.0373C33.2079 22.4403 33.4819 22.9537 33.5929 23.5124C33.7038 24.0712 33.6466 24.6503 33.4284 25.1766C33.2103 25.7028 32.841 26.1526 32.3673 26.4691C31.8936 26.7855 31.3367 26.9544 30.767 26.9544C30.3884 26.9544 30.0135 26.8798 29.6638 26.7348C29.3141 26.5898 28.9963 26.3773 28.7288 26.1095C28.4612 25.8417 28.249 25.5237 28.1044 25.1738C27.9598 24.8239 27.8856 24.449 27.886 24.0704Z" fill="#B93200"/>
<path d="M2.882 26.9535C4.47368 26.9535 5.764 25.6631 5.764 24.0715C5.764 22.4798 4.47368 21.1895 2.882 21.1895C1.29032 21.1895 0 22.4798 0 24.0715C0 25.6631 1.29032 26.9535 2.882 26.9535Z" fill="#B93200"/>
<path d="M114.423 5.764C116.015 5.764 117.305 4.47368 117.305 2.882C117.305 1.29032 116.015 0 114.423 0C112.831 0 111.541 1.29032 111.541 2.882C111.541 4.47368 112.831 5.764 114.423 5.764Z" fill="#B93200"/>
<path d="M86.538 5.764C88.1297 5.764 89.42 4.47368 89.42 2.882C89.42 1.29032 88.1297 0 86.538 0C84.9463 0 83.656 1.29032 83.656 2.882C83.656 4.47368 84.9463 5.764 86.538 5.764Z" fill="#B93200"/>
<path d="M58.653 5.764C60.2447 5.764 61.535 4.47368 61.535 2.882C61.535 1.29032 60.2447 0 58.653 0C57.0613 0 55.771 1.29032 55.771 2.882C55.771 4.47368 57.0613 5.764 58.653 5.764Z" fill="#B93200"/>
<path d="M27.886 2.88295C27.886 2.31314 28.055 1.75613 28.3715 1.28235C28.6881 0.808572 29.1381 0.43931 29.6645 0.221254C30.1909 0.00319768 30.7702 -0.0538507 31.329 0.0573133C31.8879 0.168477 32.4013 0.442866 32.8042 0.845781C33.2071 1.2487 33.4815 1.76203 33.5927 2.32089C33.7038 2.87975 33.6467 3.45903 33.4287 3.98546C33.2106 4.51189 32.8414 4.96184 32.3676 5.27841C31.8938 5.59498 31.3368 5.76395 30.767 5.76395C30.3886 5.76421 30.0138 5.68987 29.6642 5.54518C29.3145 5.40049 28.9968 5.18829 28.7292 4.92072C28.4617 4.65314 28.2495 4.33542 28.1048 3.98576C27.9601 3.63611 27.8857 3.26136 27.886 2.88295Z" fill="#B93200"/>
<path d="M2.882 5.764C4.47368 5.764 5.764 4.47368 5.764 2.882C5.764 1.29032 4.47368 0 2.882 0C1.29032 0 0 1.29032 0 2.882C0 4.47368 1.29032 5.764 2.882 5.764Z" fill="#B93200"/>
</g>
<defs>
<clipPath id="clip0">
<rect width="117.305" height="111.711" fill="white"/>
</clipPath>
</defs>
</svg>
