<svg width="160" height="160" viewBox="0 0 160 160" fill="none" xmlns="http://www.w3.org/2000/svg">
<path d="M160 80C160 124.183 124.183 160 80 160C35.8172 160 0 124.183 0 80C0 35.8172 35.8172 2.59551e-05 80 2.59551e-05C124.183 2.59551e-05 160 35.8172 160 80Z" fill="#BBBABA"/>
<path d="M71.3868 74.3701C69.9308 74.3701 68.5308 74.1368 67.1868 73.6701C65.8614 73.2035 64.8348 72.5875 64.1068 71.8221L64.9188 70.2261C65.6281 70.9355 66.5708 71.5141 67.7468 71.9621C68.9228 72.3915 70.1361 72.6061 71.3868 72.6061C73.1414 72.6061 74.4574 72.2888 75.3348 71.6541C76.2121 71.0008 76.6508 70.1608 76.6508 69.1341C76.6508 68.3501 76.4081 67.7248 75.9228 67.2581C75.4561 66.7915 74.8774 66.4368 74.1868 66.1941C73.4961 65.9328 72.5348 65.6528 71.3028 65.3541C69.8281 64.9808 68.6521 64.6261 67.7748 64.2901C66.8974 63.9355 66.1414 63.4035 65.5068 62.6941C64.8908 61.9848 64.5828 61.0235 64.5828 59.8101C64.5828 58.8208 64.8441 57.9248 65.3668 57.1221C65.8894 56.3008 66.6921 55.6475 67.7748 55.1621C68.8574 54.6768 70.2014 54.4341 71.8068 54.4341C72.9268 54.4341 74.0188 54.5928 75.0828 54.9101C76.1654 55.2088 77.0988 55.6288 77.8828 56.1701L77.1828 57.8221C76.3614 57.2808 75.4841 56.8795 74.5508 56.6181C73.6174 56.3381 72.7028 56.1981 71.8068 56.1981C70.0894 56.1981 68.7921 56.5341 67.9148 57.2061C67.0561 57.8595 66.6268 58.7088 66.6268 59.7541C66.6268 60.5381 66.8601 61.1728 67.3268 61.6581C67.8121 62.1248 68.4094 62.4888 69.1188 62.7501C69.8468 62.9928 70.8174 63.2635 72.0308 63.5621C73.4681 63.9168 74.6254 64.2715 75.5028 64.6261C76.3988 64.9621 77.1548 65.4848 77.7708 66.1941C78.3868 66.8848 78.6948 67.8275 78.6948 69.0221C78.6948 70.0115 78.4241 70.9168 77.8828 71.7381C77.3601 72.5408 76.5481 73.1848 75.4468 73.6701C74.3454 74.1368 72.9921 74.3701 71.3868 74.3701ZM95.6133 67.4541H83.2933C83.4053 68.9848 83.9933 70.2261 85.0573 71.1781C86.1213 72.1115 87.4653 72.5781 89.0893 72.5781C90.004 72.5781 90.844 72.4195 91.6093 72.1021C92.3747 71.7661 93.0373 71.2808 93.5973 70.6461L94.7173 71.9341C94.064 72.7181 93.2427 73.3155 92.2533 73.7261C91.2827 74.1368 90.2093 74.3421 89.0333 74.3421C87.5213 74.3421 86.1773 74.0248 85.0013 73.3901C83.844 72.7368 82.9387 71.8408 82.2853 70.7021C81.632 69.5635 81.3053 68.2755 81.3053 66.8381C81.3053 65.4008 81.6133 64.1128 82.2293 62.9741C82.864 61.8355 83.7227 60.9488 84.8053 60.3141C85.9067 59.6795 87.1387 59.3621 88.5013 59.3621C89.864 59.3621 91.0867 59.6795 92.1693 60.3141C93.252 60.9488 94.1013 61.8355 94.7173 62.9741C95.3333 64.0941 95.6413 65.3821 95.6413 66.8381L95.6133 67.4541ZM88.5013 61.0701C87.0827 61.0701 85.888 61.5275 84.9173 62.4421C83.9653 63.3381 83.424 64.5141 83.2933 65.9701H93.7373C93.6067 64.5141 93.056 63.3381 92.0853 62.4421C91.1333 61.5275 89.9387 61.0701 88.5013 61.0701ZM36.8929 91.3621C38.2743 91.3621 39.5249 91.6795 40.6449 92.3141C41.7649 92.9301 42.6423 93.8075 43.2769 94.9461C43.9116 96.0848 44.2289 97.3821 44.2289 98.8381C44.2289 100.313 43.9116 101.619 43.2769 102.758C42.6423 103.897 41.7649 104.783 40.6449 105.418C39.5436 106.034 38.2929 106.342 36.8929 106.342C35.6983 106.342 34.6156 106.099 33.6449 105.614C32.6929 105.11 31.9089 104.382 31.2929 103.43V111.634H29.3049V91.4741H31.2089V94.3861C31.8063 93.4155 32.5903 92.6688 33.5609 92.1461C34.5503 91.6235 35.6609 91.3621 36.8929 91.3621ZM36.7529 104.578C37.7796 104.578 38.7129 104.345 39.5529 103.878C40.3929 103.393 41.0463 102.711 41.5129 101.834C41.9983 100.957 42.2409 99.9581 42.2409 98.8381C42.2409 97.7181 41.9983 96.7288 41.5129 95.8701C41.0463 94.9928 40.3929 94.3115 39.5529 93.8261C38.7129 93.3408 37.7796 93.0981 36.7529 93.0981C35.7076 93.0981 34.7649 93.3408 33.9249 93.8261C33.1036 94.3115 32.4503 94.9928 31.9649 95.8701C31.4983 96.7288 31.2649 97.7181 31.2649 98.8381C31.2649 99.9581 31.4983 100.957 31.9649 101.834C32.4503 102.711 33.1036 103.393 33.9249 103.878C34.7649 104.345 35.7076 104.578 36.7529 104.578ZM50.1855 94.3581C50.6522 93.3688 51.3428 92.6221 52.2575 92.1181C53.1908 91.6141 54.3388 91.3621 55.7015 91.3621V93.2941L55.2255 93.2661C53.6762 93.2661 52.4628 93.7421 51.5855 94.6941C50.7082 95.6461 50.2695 96.9808 50.2695 98.6981V106.202H48.2815V91.4741H50.1855V94.3581ZM65.1843 106.342C63.7657 106.342 62.487 106.025 61.3483 105.39C60.2097 104.737 59.3137 103.841 58.6603 102.702C58.007 101.563 57.6803 100.275 57.6803 98.8381C57.6803 97.4008 58.007 96.1128 58.6603 94.9741C59.3137 93.8355 60.2097 92.9488 61.3483 92.3141C62.487 91.6795 63.7657 91.3621 65.1843 91.3621C66.603 91.3621 67.8817 91.6795 69.0203 92.3141C70.159 92.9488 71.0457 93.8355 71.6803 94.9741C72.3337 96.1128 72.6603 97.4008 72.6603 98.8381C72.6603 100.275 72.3337 101.563 71.6803 102.702C71.0457 103.841 70.159 104.737 69.0203 105.39C67.8817 106.025 66.603 106.342 65.1843 106.342ZM65.1843 104.578C66.2297 104.578 67.163 104.345 67.9843 103.878C68.8243 103.393 69.4777 102.711 69.9443 101.834C70.411 100.957 70.6443 99.9581 70.6443 98.8381C70.6443 97.7181 70.411 96.7195 69.9443 95.8421C69.4777 94.9648 68.8243 94.2928 67.9843 93.8261C67.163 93.3408 66.2297 93.0981 65.1843 93.0981C64.139 93.0981 63.1963 93.3408 62.3563 93.8261C61.535 94.2928 60.8817 94.9648 60.3963 95.8421C59.9297 96.7195 59.6963 97.7181 59.6963 98.8381C59.6963 99.9581 59.9297 100.957 60.3963 101.834C60.8817 102.711 61.535 103.393 62.3563 103.878C63.1963 104.345 64.139 104.578 65.1843 104.578ZM84.475 105.306C84.1017 105.642 83.635 105.903 83.075 106.09C82.5337 106.258 81.9643 106.342 81.367 106.342C79.9857 106.342 78.9217 105.969 78.175 105.222C77.4283 104.475 77.055 103.421 77.055 102.058V93.1541H74.423V91.4741H77.055V88.2541H79.043V91.4741H83.523V93.1541H79.043V101.946C79.043 102.823 79.2577 103.495 79.687 103.962C80.135 104.41 80.7697 104.634 81.591 104.634C82.0017 104.634 82.3937 104.569 82.767 104.438C83.159 104.307 83.495 104.121 83.775 103.878L84.475 105.306ZM100.398 99.4541H88.0785C88.1905 100.985 88.7785 102.226 89.8425 103.178C90.9065 104.111 92.2505 104.578 93.8745 104.578C94.7891 104.578 95.6291 104.419 96.3945 104.102C97.1598 103.766 97.8225 103.281 98.3825 102.646L99.5025 103.934C98.8491 104.718 98.0278 105.315 97.0385 105.726C96.0678 106.137 94.9945 106.342 93.8185 106.342C92.3065 106.342 90.9625 106.025 89.7865 105.39C88.6291 104.737 87.7238 103.841 87.0705 102.702C86.4171 101.563 86.0905 100.275 86.0905 98.8381C86.0905 97.4008 86.3985 96.1128 87.0145 94.9741C87.6491 93.8355 88.5078 92.9488 89.5905 92.3141C90.6918 91.6795 91.9238 91.3621 93.2865 91.3621C94.6491 91.3621 95.8718 91.6795 96.9545 92.3141C98.0371 92.9488 98.8865 93.8355 99.5025 94.9741C100.118 96.0941 100.426 97.3821 100.426 98.8381L100.398 99.4541ZM93.2865 93.0701C91.8678 93.0701 90.6731 93.5275 89.7025 94.4421C88.7505 95.3381 88.2091 96.5141 88.0785 97.9701H98.5225C98.3918 96.5141 97.8411 95.3381 96.8705 94.4421C95.9185 93.5275 94.7238 93.0701 93.2865 93.0701ZM102.289 111.774C101.673 111.774 101.094 111.69 100.553 111.522C99.9929 111.373 99.5356 111.139 99.1809 110.822L99.8809 109.31C100.46 109.814 101.225 110.066 102.177 110.066C102.961 110.066 103.558 109.833 103.969 109.366C104.398 108.899 104.613 108.209 104.613 107.294V91.4741H106.601V107.294C106.601 108.675 106.228 109.767 105.481 110.57C104.734 111.373 103.67 111.774 102.289 111.774ZM105.621 88.2261C105.21 88.2261 104.865 88.0861 104.585 87.8061C104.305 87.5261 104.165 87.1901 104.165 86.7981C104.165 86.4248 104.305 86.0981 104.585 85.8181C104.865 85.5381 105.21 85.3981 105.621 85.3981C106.032 85.3981 106.377 85.5381 106.657 85.8181C106.937 86.0795 107.077 86.3968 107.077 86.7701C107.077 87.1808 106.937 87.5261 106.657 87.8061C106.377 88.0861 106.032 88.2261 105.621 88.2261ZM117.309 91.3621C119.231 91.3621 120.706 91.8475 121.733 92.8181C122.759 93.7701 123.273 95.1888 123.273 97.0741V106.202H121.369V103.906C120.921 104.671 120.258 105.269 119.381 105.698C118.522 106.127 117.495 106.342 116.301 106.342C114.658 106.342 113.351 105.95 112.381 105.166C111.41 104.382 110.925 103.346 110.925 102.058C110.925 100.807 111.373 99.7995 112.269 99.0341C113.183 98.2688 114.63 97.8861 116.609 97.8861H121.285V96.9901C121.285 95.7208 120.93 94.7595 120.221 94.1061C119.511 93.4341 118.475 93.0981 117.113 93.0981C116.179 93.0981 115.283 93.2568 114.425 93.5741C113.566 93.8728 112.829 94.2928 112.213 94.8341L111.317 93.3501C112.063 92.7155 112.959 92.2301 114.005 91.8941C115.05 91.5395 116.151 91.3621 117.309 91.3621ZM116.609 104.774C117.729 104.774 118.69 104.522 119.493 104.018C120.295 103.495 120.893 102.749 121.285 101.778V99.3701H116.665C114.145 99.3701 112.885 100.247 112.885 102.002C112.885 102.861 113.211 103.542 113.865 104.046C114.518 104.531 115.433 104.774 116.609 104.774ZM128.364 86.6021H130.716L130.296 100.322H128.756L128.364 86.6021ZM129.54 106.342C129.129 106.342 128.775 106.202 128.476 105.922C128.196 105.623 128.056 105.278 128.056 104.886C128.056 104.475 128.196 104.139 128.476 103.878C128.756 103.598 129.111 103.458 129.54 103.458C129.951 103.458 130.296 103.598 130.576 103.878C130.856 104.139 130.996 104.475 130.996 104.886C130.996 105.278 130.856 105.623 130.576 105.922C130.296 106.202 129.951 106.342 129.54 106.342Z" fill="black"/>
</svg>
