<svg width="168" height="168" viewBox="0 0 168 168" fill="none" xmlns="http://www.w3.org/2000/svg">
<g filter="url(#filter0_d)">
<path d="M164 80C164 124.183 128.183 160 84 160C39.8172 160 4 124.183 4 80C4 35.8172 39.8172 2.59551e-05 84 2.59551e-05C128.183 2.59551e-05 164 35.8172 164 80Z" fill="white"/>
<path d="M75.3863 74.3701C73.9303 74.3701 72.5303 74.1368 71.1863 73.6701C69.8609 73.2035 68.8343 72.5875 68.1063 71.8221L68.9183 70.2261C69.6276 70.9355 70.5703 71.5141 71.7463 71.9621C72.9223 72.3915 74.1356 72.6061 75.3863 72.6061C77.1409 72.6061 78.4569 72.2888 79.3343 71.6541C80.2116 71.0008 80.6503 70.1608 80.6503 69.1341C80.6503 68.3501 80.4076 67.7248 79.9223 67.2581C79.4556 66.7915 78.8769 66.4368 78.1863 66.1941C77.4956 65.9328 76.5343 65.6528 75.3023 65.3541C73.8276 64.9808 72.6516 64.6261 71.7743 64.2901C70.8969 63.9355 70.1409 63.4035 69.5063 62.6941C68.8903 61.9848 68.5823 61.0235 68.5823 59.8101C68.5823 58.8208 68.8436 57.9248 69.3663 57.1221C69.8889 56.3008 70.6916 55.6475 71.7743 55.1621C72.8569 54.6768 74.2009 54.4341 75.8063 54.4341C76.9263 54.4341 78.0183 54.5928 79.0823 54.9101C80.1649 55.2088 81.0983 55.6288 81.8823 56.1701L81.1823 57.8221C80.3609 57.2808 79.4836 56.8795 78.5503 56.6181C77.6169 56.3381 76.7023 56.1981 75.8063 56.1981C74.0889 56.1981 72.7916 56.5341 71.9143 57.2061C71.0556 57.8595 70.6263 58.7088 70.6263 59.7541C70.6263 60.5381 70.8596 61.1728 71.3263 61.6581C71.8116 62.1248 72.4089 62.4888 73.1183 62.7501C73.8463 62.9928 74.8169 63.2635 76.0303 63.5621C77.4676 63.9168 78.6249 64.2715 79.5023 64.6261C80.3983 64.9621 81.1543 65.4848 81.7703 66.1941C82.3863 66.8848 82.6943 67.8275 82.6943 69.0221C82.6943 70.0115 82.4236 70.9168 81.8823 71.7381C81.3596 72.5408 80.5476 73.1848 79.4463 73.6701C78.3449 74.1368 76.9916 74.3701 75.3863 74.3701ZM99.6128 67.4541H87.2928C87.4048 68.9848 87.9928 70.2261 89.0568 71.1781C90.1208 72.1115 91.4648 72.5781 93.0888 72.5781C94.0035 72.5781 94.8435 72.4195 95.6088 72.1021C96.3742 71.7661 97.0368 71.2808 97.5968 70.6461L98.7168 71.9341C98.0635 72.7181 97.2422 73.3155 96.2528 73.7261C95.2822 74.1368 94.2088 74.3421 93.0328 74.3421C91.5208 74.3421 90.1768 74.0248 89.0008 73.3901C87.8435 72.7368 86.9382 71.8408 86.2848 70.7021C85.6315 69.5635 85.3048 68.2755 85.3048 66.8381C85.3048 65.4008 85.6128 64.1128 86.2288 62.9741C86.8635 61.8355 87.7222 60.9488 88.8048 60.3141C89.9062 59.6795 91.1382 59.3621 92.5008 59.3621C93.8635 59.3621 95.0862 59.6795 96.1688 60.3141C97.2515 60.9488 98.1008 61.8355 98.7168 62.9741C99.3328 64.0941 99.6408 65.3821 99.6408 66.8381L99.6128 67.4541ZM92.5008 61.0701C91.0822 61.0701 89.8875 61.5275 88.9168 62.4421C87.9648 63.3381 87.4235 64.5141 87.2928 65.9701H97.7368C97.6062 64.5141 97.0555 63.3381 96.0848 62.4421C95.1328 61.5275 93.9382 61.0701 92.5008 61.0701ZM40.8925 91.3621C42.2738 91.3621 43.5245 91.6795 44.6445 92.3141C45.7645 92.9301 46.6418 93.8075 47.2765 94.9461C47.9111 96.0848 48.2285 97.3821 48.2285 98.8381C48.2285 100.313 47.9111 101.619 47.2765 102.758C46.6418 103.897 45.7645 104.783 44.6445 105.418C43.5431 106.034 42.2925 106.342 40.8925 106.342C39.6978 106.342 38.6151 106.099 37.6445 105.614C36.6925 105.11 35.9085 104.382 35.2925 103.43V111.634H33.3045V91.4741H35.2085V94.3861C35.8058 93.4155 36.5898 92.6688 37.5605 92.1461C38.5498 91.6235 39.6605 91.3621 40.8925 91.3621ZM40.7525 104.578C41.7791 104.578 42.7125 104.345 43.5525 103.878C44.3925 103.393 45.0458 102.711 45.5125 101.834C45.9978 100.957 46.2405 99.9581 46.2405 98.8381C46.2405 97.7181 45.9978 96.7288 45.5125 95.8701C45.0458 94.9928 44.3925 94.3115 43.5525 93.8261C42.7125 93.3408 41.7791 93.0981 40.7525 93.0981C39.7071 93.0981 38.7645 93.3408 37.9245 93.8261C37.1031 94.3115 36.4498 94.9928 35.9645 95.8701C35.4978 96.7288 35.2645 97.7181 35.2645 98.8381C35.2645 99.9581 35.4978 100.957 35.9645 101.834C36.4498 102.711 37.1031 103.393 37.9245 103.878C38.7645 104.345 39.7071 104.578 40.7525 104.578ZM54.185 94.3581C54.6517 93.3688 55.3424 92.6221 56.257 92.1181C57.1904 91.6141 58.3384 91.3621 59.701 91.3621V93.2941L59.225 93.2661C57.6757 93.2661 56.4624 93.7421 55.585 94.6941C54.7077 95.6461 54.269 96.9808 54.269 98.6981V106.202H52.281V91.4741H54.185V94.3581ZM69.1838 106.342C67.7652 106.342 66.4865 106.025 65.3478 105.39C64.2092 104.737 63.3132 103.841 62.6598 102.702C62.0065 101.563 61.6798 100.275 61.6798 98.8381C61.6798 97.4008 62.0065 96.1128 62.6598 94.9741C63.3132 93.8355 64.2092 92.9488 65.3478 92.3141C66.4865 91.6795 67.7652 91.3621 69.1838 91.3621C70.6025 91.3621 71.8812 91.6795 73.0198 92.3141C74.1585 92.9488 75.0452 93.8355 75.6798 94.9741C76.3332 96.1128 76.6598 97.4008 76.6598 98.8381C76.6598 100.275 76.3332 101.563 75.6798 102.702C75.0452 103.841 74.1585 104.737 73.0198 105.39C71.8812 106.025 70.6025 106.342 69.1838 106.342ZM69.1838 104.578C70.2292 104.578 71.1625 104.345 71.9838 103.878C72.8238 103.393 73.4772 102.711 73.9438 101.834C74.4105 100.957 74.6438 99.9581 74.6438 98.8381C74.6438 97.7181 74.4105 96.7195 73.9438 95.8421C73.4772 94.9648 72.8238 94.2928 71.9838 93.8261C71.1625 93.3408 70.2292 93.0981 69.1838 93.0981C68.1385 93.0981 67.1958 93.3408 66.3558 93.8261C65.5345 94.2928 64.8812 94.9648 64.3958 95.8421C63.9292 96.7195 63.6958 97.7181 63.6958 98.8381C63.6958 99.9581 63.9292 100.957 64.3958 101.834C64.8812 102.711 65.5345 103.393 66.3558 103.878C67.1958 104.345 68.1385 104.578 69.1838 104.578ZM88.4745 105.306C88.1012 105.642 87.6345 105.903 87.0745 106.09C86.5332 106.258 85.9639 106.342 85.3665 106.342C83.9852 106.342 82.9212 105.969 82.1745 105.222C81.4279 104.475 81.0545 103.421 81.0545 102.058V93.1541H78.4225V91.4741H81.0545V88.2541H83.0425V91.4741H87.5225V93.1541H83.0425V101.946C83.0425 102.823 83.2572 103.495 83.6865 103.962C84.1345 104.41 84.7692 104.634 85.5905 104.634C86.0012 104.634 86.3932 104.569 86.7665 104.438C87.1585 104.307 87.4945 104.121 87.7745 103.878L88.4745 105.306ZM104.398 99.4541H92.078C92.19 100.985 92.778 102.226 93.842 103.178C94.906 104.111 96.25 104.578 97.874 104.578C98.7887 104.578 99.6287 104.419 100.394 104.102C101.159 103.766 101.822 103.281 102.382 102.646L103.502 103.934C102.849 104.718 102.027 105.315 101.038 105.726C100.067 106.137 98.994 106.342 97.818 106.342C96.306 106.342 94.962 106.025 93.786 105.39C92.6287 104.737 91.7233 103.841 91.07 102.702C90.4167 101.563 90.09 100.275 90.09 98.8381C90.09 97.4008 90.398 96.1128 91.014 94.9741C91.6487 93.8355 92.5073 92.9488 93.59 92.3141C94.6913 91.6795 95.9233 91.3621 97.286 91.3621C98.6487 91.3621 99.8713 91.6795 100.954 92.3141C102.037 92.9488 102.886 93.8355 103.502 94.9741C104.118 96.0941 104.426 97.3821 104.426 98.8381L104.398 99.4541ZM97.286 93.0701C95.8673 93.0701 94.6727 93.5275 93.702 94.4421C92.75 95.3381 92.2087 96.5141 92.078 97.9701H102.522C102.391 96.5141 101.841 95.3381 100.87 94.4421C99.918 93.5275 98.7233 93.0701 97.286 93.0701ZM106.288 111.774C105.672 111.774 105.094 111.69 104.552 111.522C103.992 111.373 103.535 111.139 103.18 110.822L103.88 109.31C104.459 109.814 105.224 110.066 106.176 110.066C106.96 110.066 107.558 109.833 107.968 109.366C108.398 108.899 108.612 108.209 108.612 107.294V91.4741H110.6V107.294C110.6 108.675 110.227 109.767 109.48 110.57C108.734 111.373 107.67 111.774 106.288 111.774ZM109.62 88.2261C109.21 88.2261 108.864 88.0861 108.584 87.8061C108.304 87.5261 108.164 87.1901 108.164 86.7981C108.164 86.4248 108.304 86.0981 108.584 85.8181C108.864 85.5381 109.21 85.3981 109.62 85.3981C110.031 85.3981 110.376 85.5381 110.656 85.8181C110.936 86.0795 111.076 86.3968 111.076 86.7701C111.076 87.1808 110.936 87.5261 110.656 87.8061C110.376 88.0861 110.031 88.2261 109.62 88.2261ZM121.308 91.3621C123.231 91.3621 124.705 91.8475 125.732 92.8181C126.759 93.7701 127.272 95.1888 127.272 97.0741V106.202H125.368V103.906C124.92 104.671 124.257 105.269 123.38 105.698C122.521 106.127 121.495 106.342 120.3 106.342C118.657 106.342 117.351 105.95 116.38 105.166C115.409 104.382 114.924 103.346 114.924 102.058C114.924 100.807 115.372 99.7995 116.268 99.0341C117.183 98.2688 118.629 97.8861 120.608 97.8861H125.284V96.9901C125.284 95.7208 124.929 94.7595 124.22 94.1061C123.511 93.4341 122.475 93.0981 121.112 93.0981C120.179 93.0981 119.283 93.2568 118.424 93.5741C117.565 93.8728 116.828 94.2928 116.212 94.8341L115.316 93.3501C116.063 92.7155 116.959 92.2301 118.004 91.8941C119.049 91.5395 120.151 91.3621 121.308 91.3621ZM120.608 104.774C121.728 104.774 122.689 104.522 123.492 104.018C124.295 103.495 124.892 102.749 125.284 101.778V99.3701H120.664C118.144 99.3701 116.884 100.247 116.884 102.002C116.884 102.861 117.211 103.542 117.864 104.046C118.517 104.531 119.432 104.774 120.608 104.774ZM132.364 86.6021H134.716L134.296 100.322H132.756L132.364 86.6021ZM133.54 106.342C133.129 106.342 132.774 106.202 132.476 105.922C132.196 105.623 132.056 105.278 132.056 104.886C132.056 104.475 132.196 104.139 132.476 103.878C132.756 103.598 133.11 103.458 133.54 103.458C133.95 103.458 134.296 103.598 134.576 103.878C134.856 104.139 134.996 104.475 134.996 104.886C134.996 105.278 134.856 105.623 134.576 105.922C134.296 106.202 133.95 106.342 133.54 106.342Z" fill="#B93200"/>
</g>
<defs>
<filter id="filter0_d" x="0" y="0" width="168" height="168" filterUnits="userSpaceOnUse" color-interpolation-filters="sRGB">
<feFlood flood-opacity="0" result="BackgroundImageFix"/>
<feColorMatrix in="SourceAlpha" type="matrix" values="0 0 0 0 0 0 0 0 0 0 0 0 0 0 0 0 0 0 127 0" result="hardAlpha"/>
<feOffset dy="4"/>
<feGaussianBlur stdDeviation="2"/>
<feComposite in2="hardAlpha" operator="out"/>
<feColorMatrix type="matrix" values="0 0 0 0 0 0 0 0 0 0 0 0 0 0 0 0 0 0 0.25 0"/>
<feBlend mode="normal" in2="BackgroundImageFix" result="effect1_dropShadow"/>
<feBlend mode="normal" in="SourceGraphic" in2="effect1_dropShadow" result="shape"/>
</filter>
</defs>
</svg>
