<svg width="161" height="143" viewBox="0 0 161 143" fill="none" xmlns="http://www.w3.org/2000/svg">
<path d="M80.3686 142.268C124.755 142.268 160.737 110.42 160.737 71.134C160.737 31.8478 124.755 0 80.3686 0C35.9822 0 0 31.8478 0 71.134C0 110.42 35.9822 142.268 80.3686 142.268Z" fill="#4D545B"/>
<path opacity="0.2" d="M49.8286 27.7424C53.9275 27.1022 56.3401 24.9682 57.0619 21.3403C57.7852 24.9682 60.1979 27.1022 64.2951 27.7424C60.1979 28.384 57.7852 30.5166 57.0619 34.1444C56.3401 30.5166 53.9275 28.384 49.8286 27.7424Z" fill="white"/>
<path opacity="0.1" d="M114.123 105.99C118.222 105.349 120.635 103.215 121.357 99.5876C122.08 103.215 124.493 105.349 128.59 105.99C124.493 106.631 122.08 108.764 121.357 112.392C120.635 108.764 118.222 106.631 114.123 105.99ZM17.6812 91.7629C21.78 91.1227 24.1926 88.9887 24.9143 85.3608C25.6376 88.9887 28.0503 91.1227 32.1475 91.7629C28.0503 92.4045 25.6376 94.5371 24.9143 98.165C24.1926 94.5371 21.78 92.4045 17.6812 91.7629Z" fill="white"/>
<path d="M160.737 0.142268C160.487 0.167876 160.549 0.224784 160.577 0C123.099 4.23817 101.845 17.4719 89.7961 31.3488C89.3699 31.8405 88.9509 32.337 88.5391 32.8383L88.5263 32.8525C75.5708 48.65 74.0792 65.1758 73.9394 69.7113H72.332L70.7246 73.9794L77.1541 79.6701L81.9762 78.2474V76.8247C85.7916 76.759 89.5927 76.3909 93.3339 75.725L93.3371 75.7279C94.5089 75.4689 94.8352 75.836 94.8352 81.0928V93.8969C94.8352 96.4705 96.3509 97.4493 97.9615 96.0224C101.856 92.5681 102.788 91.7216 111.624 83.8898C118.311 77.9615 119.14 74.5072 116.377 68.1564C134.944 58.8549 155.002 39.6757 160.737 0.142268Z" fill="black" fill-opacity="0.8"/>
<path d="M77.1539 79.6701L70.7244 73.9794L72.3318 69.7113H75.5465L81.976 75.4021V78.2474L77.1539 79.6701ZM83.5834 39.8351C80.8219 38.8534 80.3686 38.4124 77.1539 38.4124C73.9392 38.4124 70.4303 40.3757 66.1257 44.1927C59.288 50.2519 58.33 51.0771 52.4374 56.2969C50.5117 58.0041 53.4661 58.3299 57.8655 58.3299C66.2768 58.3299 72.8092 58.1521 75.2106 60.3501C78.3819 63.2524 83.5834 39.8351 83.5834 39.8351ZM160.737 0C159.71 7.07499 158.22 13.6279 156.364 19.4594C154.677 16.6567 152.245 13.2508 149.13 10.5364C145.673 7.52029 141.396 5.3692 138.158 4.01338C147.844 1.55214 155.566 0.586144 160.737 0Z" fill="#7D7D7D"/>
<path opacity="0.3" d="M116.377 68.1563C119.14 74.5058 118.486 77.8135 111.79 83.7404C110.433 84.9411 99.2071 94.9212 97.9598 96.0224C96.3476 97.4479 94.8881 96.4705 94.835 93.8969V92.9693C99.6571 88.7013 110.409 80.2534 112.516 76.8247C113.751 74.8173 113.082 71.6263 112.516 69.7113C107.192 72.2152 94.0056 75.5358 93.337 75.7278C88.2545 76.6469 84.3341 76.7436 81.9761 76.8247V75.8915C81.9761 75.8915 130.157 62.1441 160.737 0C154.96 39.9019 134.944 58.8549 116.377 68.1563Z" fill="white"/>
<path d="M124.571 39.8352C118.811 39.8352 114.124 35.6866 114.124 30.5878C114.124 25.4889 118.811 21.3403 124.571 21.3403C130.332 21.3403 135.019 25.4889 135.019 30.5878C135.019 35.6866 130.332 39.8352 124.571 39.8352Z" fill="white"/>
<path d="M124.571 22.7628C126.916 22.7628 129.165 23.5872 130.823 25.0547C132.481 26.5221 133.412 28.5123 133.412 30.5876C133.412 32.6628 132.481 34.6531 130.823 36.1205C129.165 37.5879 126.916 38.4123 124.571 38.4123C122.227 38.4123 119.978 37.5879 118.32 36.1205C116.662 34.6531 115.731 32.6628 115.731 30.5876C115.731 28.5123 116.662 26.5221 118.32 25.0547C119.978 23.5872 122.227 22.7628 124.571 22.7628ZM124.571 19.9175C117.922 19.9175 112.516 24.7034 112.516 30.5876C112.516 36.4718 117.922 41.2577 124.571 41.2577C131.221 41.2577 136.627 36.4718 136.627 30.5876C136.627 24.7034 131.221 19.9175 124.571 19.9175Z" fill="#7D7D7D"/>
<path d="M70.7247 73.9795L77.1542 79.6702L20.8962 130.887L11.252 122.351L70.7247 73.9795Z" fill="#D7DCDE"/>
<path d="M70.5237 73.9795L73.7384 76.8249L12.0555 130.175L7.2334 125.907L70.5237 73.9795Z" fill="#F7F7F7"/>
</svg>
