<svg width="80" height="80" viewBox="0 0 100 100" fill="none" xmlns="http://www.w3.org/2000/svg">
<path d="M73.75 0C78.0598 0 82.193 1.71205 85.2405 4.75952C88.288 7.80698 90 11.9402 90 16.25V45.11C87.6625 43.6114 85.1418 42.42 82.5 41.565V27.5H7.5V73.75C7.5 78.58 11.42 82.5 16.25 82.5H41.565C42.43 85.17 43.625 87.685 45.11 90H16.25C11.9402 90 7.80698 88.288 4.75951 85.2405C1.71205 82.1931 0 78.0598 0 73.75V16.25C0 11.9402 1.71205 7.80698 4.75951 4.75952C7.80698 1.71205 11.9402 0 16.25 0H73.75ZM73.75 7.5H16.25C13.9294 7.5 11.7038 8.42188 10.0628 10.0628C8.42187 11.7038 7.5 13.9294 7.5 16.25V20H82.5V16.25C82.5 13.9294 81.5781 11.7038 79.9372 10.0628C78.2962 8.42188 76.0706 7.5 73.75 7.5Z" fill="black"/>
<path d="M99.9995 72.5C99.9995 79.7935 97.1022 86.7882 91.945 91.9455C86.7877 97.1027 79.793 100 72.4995 100C65.2061 100 58.2113 97.1027 53.0541 91.9455C47.8968 86.7882 44.9995 79.7935 44.9995 72.5C44.9995 65.2066 47.8968 58.2118 53.0541 53.0546C58.2113 47.8973 65.2061 45 72.4995 45C79.793 45 86.7877 47.8973 91.945 53.0546C97.1022 58.2118 99.9995 65.2066 99.9995 72.5ZM89.2695 60.73C89.0373 60.4972 88.7614 60.3125 88.4577 60.1864C88.154 60.0604 87.8284 59.9955 87.4995 59.9955C87.1707 59.9955 86.8451 60.0604 86.5413 60.1864C86.2376 60.3125 85.9617 60.4972 85.7295 60.73L67.4995 78.965L59.2695 70.73C58.8001 70.2606 58.1634 69.9969 57.4995 69.9969C56.8356 69.9969 56.1989 70.2606 55.7295 70.73C55.2601 71.1994 54.9964 71.8361 54.9964 72.5C54.9964 73.1639 55.2601 73.8006 55.7295 74.27L65.7295 84.27C65.9617 84.5028 66.2376 84.6875 66.5413 84.8136C66.8451 84.9396 67.1707 85.0045 67.4995 85.0045C67.8283 85.0045 68.154 84.9396 68.4577 84.8136C68.7614 84.6875 69.0373 84.5028 69.2695 84.27L89.2695 64.27C89.5023 64.0378 89.687 63.7619 89.8131 63.4582C89.9391 63.1544 90.004 62.8288 90.004 62.5C90.004 62.1712 89.9391 61.8456 89.8131 61.5418C89.687 61.2381 89.5023 60.9622 89.2695 60.73Z" fill="black"/>
</svg>
