<svg width="27" height="26" viewBox="0 0 27 26" fill="none" xmlns="http://www.w3.org/2000/svg">
<g clip-path="url(#clip0)">
<path d="M21.8915 9.0349C24.3864 9.0349 26.4089 7.01237 26.4089 4.51745C26.4089 2.02253 24.3864 0 21.8915 0C19.3966 0 17.374 2.02253 17.374 4.51745C17.374 7.01237 19.3966 9.0349 21.8915 9.0349Z" fill="white"/>
<path d="M4.92663 25.9997C7.42155 25.9997 9.44408 23.9772 9.44408 21.4823C9.44408 18.9874 7.42155 16.9648 4.92663 16.9648C2.43171 16.9648 0.40918 18.9874 0.40918 21.4823C0.40918 23.9772 2.43171 25.9997 4.92663 25.9997Z" fill="white"/>
<path d="M21.3505 25.3865C23.8454 25.3865 25.8679 23.3639 25.8679 20.869C25.8679 18.3741 23.8454 16.3516 21.3505 16.3516C18.8555 16.3516 16.833 18.3741 16.833 20.869C16.833 23.3639 18.8555 25.3865 21.3505 25.3865Z" fill="white"/>
<path d="M5.84655 9.88255C8.34147 9.88255 10.364 7.86002 10.364 5.36511C10.364 2.87019 8.34147 0.847656 5.84655 0.847656C3.35163 0.847656 1.3291 2.87019 1.3291 5.36511C1.3291 7.86002 3.35163 9.88255 5.84655 9.88255Z" fill="white"/>
</g>
<defs>
<clipPath id="clip0">
<rect width="26" height="26" fill="white" transform="translate(0.40918)"/>
</clipPath>
</defs>
</svg>
